<?xml version="1.0" encoding="UTF-8" standalone="no"?>
<!-- Created with Inkscape (http://www.inkscape.org/) -->

<svg
   xmlns:dc="http://purl.org/dc/elements/1.1/"
   xmlns:cc="http://creativecommons.org/ns#"
   xmlns:rdf="http://www.w3.org/1999/02/22-rdf-syntax-ns#"
   xmlns:svg="http://www.w3.org/2000/svg"
   xmlns="http://www.w3.org/2000/svg"
   xmlns:sodipodi="http://sodipodi.sourceforge.net/DTD/sodipodi-0.dtd"
   xmlns:inkscape="http://www.inkscape.org/namespaces/inkscape"
   width="1349"
   height="1055"
   viewBox="0 0 356.92291 279.13542"
   version="1.1"
   id="svg8"
   inkscape:version="0.92.4 (5da689c313, 2019-01-14)"
   sodipodi:docname="about page section.svg"
   inkscape:export-filename="C:\Users\mrbor\Downloads\about page section\about page section.png"
   inkscape:export-xdpi="96"
   inkscape:export-ydpi="96">
  <defs
     id="defs2">
    <style
       id="style901"
       type="text/css">
   
    .fil0 {fill:#FFFFFF}
   
  </style>
  </defs>
  <sodipodi:namedview
     id="base"
     pagecolor="#ffffff"
     bordercolor="#666666"
     borderopacity="1.0"
     inkscape:pageopacity="0.0"
     inkscape:pageshadow="2"
     inkscape:zoom="0.35"
     inkscape:cx="277.82199"
     inkscape:cy="563.60234"
     inkscape:document-units="mm"
     inkscape:current-layer="layer1"
     showgrid="false"
     units="px"
     showguides="true"
     inkscape:guide-bbox="true"
     inkscape:window-width="1366"
     inkscape:window-height="745"
     inkscape:window-x="-8"
     inkscape:window-y="-8"
     inkscape:window-maximized="1">
    <sodipodi:guide
       position="167.06547,237.36905"
       orientation="0,1"
       id="guide847"
       inkscape:locked="false" />
    <sodipodi:guide
       position="9.7496203,173.03533"
       orientation="0,1"
       id="guide849"
       inkscape:locked="false" />
    <sodipodi:guide
       position="164.63803,185.48505"
       orientation="0,1"
       id="guide923"
       inkscape:locked="false" />
    <sodipodi:guide
       position="119.20221,206.33208"
       orientation="0,1"
       id="guide969"
       inkscape:locked="false" />
  </sodipodi:namedview>
  <metadata
     id="metadata5">
    <rdf:RDF>
      <cc:Work
         rdf:about="">
        <dc:format>image/svg+xml</dc:format>
        <dc:type
           rdf:resource="http://purl.org/dc/dcmitype/StillImage" />
        <dc:title></dc:title>
      </cc:Work>
    </rdf:RDF>
  </metadata>
  <g
     inkscape:label="Layer 1"
     inkscape:groupmode="layer"
     id="layer1"
     transform="translate(0,-17.864567)">
    <text
       xml:space="preserve"
       style="font-style:normal;font-weight:normal;font-size:21.72936249px;line-height:1.25;font-family:sans-serif;text-align:center;letter-spacing:0px;word-spacing:0px;text-anchor:middle;fill:#000000;fill-opacity:1;stroke:none;stroke-width:0.54323399"
       x="177.86729"
       y="166.93828"
       id="text990"><tspan
         sodipodi:role="line"
         id="tspan988"
         x="177.86729"
         y="166.93828"
         style="stroke-width:0.54323399">or</tspan></text>
    <g
       id="g1279"
       inkscape:export-filename="C:\Users\mrbor\Downloads\about page section\Download.png"
       inkscape:export-xdpi="96"
       inkscape:export-ydpi="96">
      <g
         transform="matrix(0.31141727,0,0,0.33206289,45.225776,94.202834)"
         id="g867"
         style="fill:#4e88c7;fill-opacity:1">
        <path
           style="fill:#4e88c7;fill-opacity:1"
           inkscape:connector-curvature="0"
           d="m 72.834,39.188 c -1.03,0 -2.066,0.098 -3.081,0.29 l -0.459,0.087 -0.117,-0.453 C 66.779,29.908 58.437,23.48 48.893,23.48 c -9.721,0 -18.106,6.592 -20.392,16.03 l -0.124,0.512 -0.505,-0.15 C 26.347,39.418 24.764,39.187 23.166,39.187 13.977,39.187 6.5,46.664 6.5,55.853 6.5,65.042 13.977,72.52 23.166,72.52 H 72.834 C 82.023,72.52 89.5,65.043 89.5,55.854 89.5,46.665 82.023,39.188 72.834,39.188 Z M 57.367,52.135 50.236,66.399 c -0.427,0.853 -1.283,1.382 -2.236,1.382 -0.953,0 -1.81,-0.529 -2.236,-1.382 L 38.633,52.135 c -0.39,-0.781 -0.349,-1.69 0.109,-2.433 0.459,-0.742 1.254,-1.186 2.127,-1.186 H 45.5 V 33.601 c 0,-1.378 1.121,-2.5 2.5,-2.5 1.379,0 2.5,1.122 2.5,2.5 v 14.917 h 4.631 c 0.873,0 1.668,0.443 2.127,1.186 0.458,0.741 0.499,1.651 0.109,2.431 z"
           id="path856" />
      </g>
      <flowRoot
         transform="matrix(0.30667238,0,0,0.30667238,-11.446,12.363108)"
         style="font-style:normal;font-weight:normal;font-size:40px;line-height:1.25;font-family:sans-serif;text-align:center;letter-spacing:0px;word-spacing:0px;text-anchor:middle;fill:#000000;fill-opacity:1;stroke:none"
         id="flowRoot925"
         xml:space="preserve"><flowRegion
           id="flowRegion927"><rect
             y="220.614"
             x="88.893425"
             height="78.791901"
             width="290.92392"
             id="rect929" /></flowRegion><flowPara
           id="flowPara931">Download</flowPara></flowRoot>      <ellipse
         inkscape:export-ydpi="100.5"
         inkscape:export-xdpi="100.5"
         ry="43.117889"
         rx="46.141697"
         cy="92.590462"
         cx="60.173805"
         id="path371"
         style="opacity:0.928;fill:none;fill-opacity:1;stroke:#213fff;stroke-width:1.2078048;stroke-miterlimit:4;stroke-dasharray:1.20780471, 2.41560943;stroke-dashoffset:0;stroke-opacity:1" />
    </g>
    <g
       id="g1289"
       inkscape:export-filename="C:\Users\mrbor\Downloads\about page section\Install.png"
       inkscape:export-xdpi="96"
       inkscape:export-ydpi="96"
       transform="translate(-3.2818125)">
      <g
         inkscape:export-ydpi="96"
         inkscape:export-xdpi="96"
         transform="matrix(0.04840349,0,0,0.04840349,173.01084,101.80486)"
         id="g899"
         style="fill:#4e88c7;fill-opacity:1">
        <g
           style="fill:#4e88c7;fill-opacity:1"
           transform="translate(263.56391,25.528185)"
           id="g887">
          <path
             inkscape:connector-curvature="0"
             style="fill:#4e88c7;fill-opacity:1;stroke-width:0.35277775"
             d="M -91.268657,335.28258 C -156.85011,331.952 -214.82703,294.45096 -244.18425,236.37262 c -10.37453,-20.52428 -16.42213,-41.48632 -18.7632,-65.03655 -0.82195,-8.26847 -0.82195,-24.64175 0,-32.91023 4.32939,-43.551951 22.85758,-82.481837 53.54523,-112.504769 29.82519,-29.1791529 67.51758,-46.630363 109.792343,-50.832793 8.26847,-0.82195 24.64175,-0.82195 32.91022,0 42.27476,4.20243 79.96715,21.6536401 109.792339,50.832793 30.68765,30.022932 49.215845,68.952818 53.545239,112.504769 0.821937,8.26848 0.821937,24.64176 0,32.91023 -4.202429,42.27476 -21.653646,79.96715 -50.832801,109.79234 -29.929487,30.59214 -69.395357,49.4067 -112.202947,53.49049 -5.63797,0.53788 -19.86995,0.91764 -24.87083,0.66368 z m 82.9027699,-51.28496 v -5.29167 H -83.154767 -157.94365 v 5.29167 5.29166 h 74.788883 74.7888799 z M -33.778117,144.15113 c 26.9765899,-26.95342 49.04834,-49.175278 49.04834,-49.38191 0,-0.555646 -6.0782001,-6.563257 -6.6403801,-6.563257 -0.26481,0 -20.0324999,19.547367 -43.9281799,43.438587 l -43.44671,43.43858 -0.089,-77.481638 -0.089,-77.481634 h -4.23176 -4.23176 l -0.089,77.479405 -0.089,77.479407 -43.438933,-43.43635 c -23.89141,-23.89 -43.65264,-43.436357 -43.91385,-43.436357 -0.69183,0 -6.66249,6.051623 -6.66249,6.752829 0,0.623644 98.022913,98.453158 98.486033,98.291718 0.147,-0.0512 22.33902,-22.14596 49.31561,-49.09938 z"
             id="path885" />
        </g>
      </g>
      <flowRoot
         inkscape:export-ydpi="96"
         inkscape:export-xdpi="96"
         transform="matrix(0.30667238,0,0,0.30667238,110.5635,11.576739)"
         style="font-style:normal;font-weight:normal;font-size:40px;line-height:1.25;font-family:sans-serif;text-align:center;letter-spacing:0px;word-spacing:0px;text-anchor:middle;fill:#000000;fill-opacity:1;stroke:none"
         id="flowRoot925-6"
         xml:space="preserve"><flowRegion
           id="flowRegion927-7"><rect
             y="220.614"
             x="88.893425"
             height="78.791901"
             width="290.92392"
             id="rect929-1" /></flowRegion><flowPara
           id="flowPara931-3">Install</flowPara></flowRoot>      <ellipse
         inkscape:export-ydpi="96"
         inkscape:export-xdpi="96"
         ry="43.117889"
         rx="46.141697"
         cy="89.064293"
         cx="181.74327"
         id="path371-9"
         style="opacity:0.928;fill:none;fill-opacity:1;stroke:#213fff;stroke-width:1.2078048;stroke-miterlimit:4;stroke-dasharray:1.20780472, 2.41560946;stroke-dashoffset:0;stroke-opacity:1" />
    </g>
    <g
       id="g1299"
       transform="translate(3.1750001)"
       inkscape:export-filename="C:\Users\mrbor\Downloads\about page section\Integrate.png"
       inkscape:export-xdpi="96"
       inkscape:export-ydpi="96">
      <g
         inkscape:export-filename="C:\Users\mrbor\Downloads\about page section\Integrate.png"
         inkscape:export-ydpi="96"
         inkscape:export-xdpi="96"
         transform="matrix(0.00516577,0,0,0.00516577,250.74971,98.159231)"
         id="g918"
         style="clip-rule:evenodd;fill:#4e88c7;fill-opacity:1;fill-rule:evenodd;image-rendering:optimizeQuality;shape-rendering:geometricPrecision;text-rendering:geometricPrecision">
        <g
           style="fill:#4e88c7;fill-opacity:1"
           id="g907">
          <path
             style="fill:#4e88c7;fill-opacity:1;stroke-width:0.3788166"
             inkscape:connector-curvature="0"
             class="fil0"
             d="M 7842.9631,1343.6625 H 7341.031 c -84.8549,142.4351 -140.9197,303.8109 -160.6182,476.1725 h 662.5503 v 354.9511 l 871.2782,-592.8479 -871.2782,-592.84804 z m 836.0482,-952.72376 c 212.1373,41.29101 409.5008,124.63066 582.2411,241.30618 l 188.6507,-188.65067 c 48.4885,-48.48853 127.2824,-48.48853 175.7709,0 l 259.1106,258.73174 c 48.1097,48.48853 48.1097,127.28238 0,175.77091 l -189.0295,188.6507 c 116.6755,173.1192 200.0152,370.1038 241.685,582.2411 h 266.6869 c 68.187,0 123.873,55.686 123.873,124.2518 v 366.3157 c 0,68.187 -55.686,123.873 -123.873,123.873 h -266.6869 c -41.6698,212.1373 -125.0095,409.5008 -241.3062,582.2412 l 188.6507,188.6506 c 48.1097,48.4886 48.1097,127.2824 0,175.7709 l -259.1106,259.1106 c -48.4885,48.1097 -127.2824,48.1097 -175.7709,0 L 9261.2524,3280.173 c -173.1192,116.6755 -370.1038,200.0152 -582.2411,241.685 v 266.6869 c 0,68.187 -55.686,123.873 -123.873,123.873 h -366.3157 c -68.5658,0 -124.2518,-55.686 -124.2518,-123.873 V 3521.858 c -212.1373,-41.6698 -409.122,-125.0095 -582.2412,-241.3062 l -188.6506,188.6507 c -48.4886,48.1097 -127.2824,48.1097 -175.7709,0 l -258.7318,-259.1106 c -48.4885,-48.4885 -48.4885,-127.2823 0,-175.7709 l 188.6507,-188.6506 c -116.6755,-173.1192 -200.0152,-370.1039 -241.3062,-582.2412 h -266.6869 c -68.5658,0 -124.2518,-55.686 -124.2518,-123.873 v -366.3157 c 0,-68.5658 55.686,-124.2518 124.2518,-124.2518 h 266.3081 c 41.6698,-212.1373 125.0095,-409.1219 241.685,-582.2411 L 6859.1763,878.0969 c -48.4885,-48.48853 -48.4885,-127.28238 0,-175.77091 l 258.7318,-258.73174 c 48.4885,-48.48853 127.2823,-48.48853 175.7709,0 l 188.6506,188.65067 C 7655.4488,515.5694 7852.4335,432.22975 8064.5708,390.93874 V 124.25185 C 8064.5708,55.686041 8120.2568,0 8188.8226,0 h 366.3157 c 68.187,0 123.873,55.686041 123.873,124.25185 z M 8371.791,686.41569 c 701.1896,0 1269.7933,568.60371 1269.7933,1269.79331 0,701.1895 -568.6037,1269.7932 -1269.7933,1269.7932 -701.1895,0 -1269.7932,-568.6037 -1269.7932,-1269.7932 0,-701.1896 568.6037,-1269.79331 1269.7932,-1269.79331 z m 545.1171,1422.83521 h 644.3671 c -21.9714,173.1192 -81.0668,334.495 -168.5734,476.1724 h -475.7937 v 354.5724 l -871.2782,-592.848 871.2782,-592.4692 z"
             id="path905" />
        </g>
      </g>
      <flowRoot
         inkscape:export-filename="C:\Users\mrbor\Downloads\about page section\Integrate.png"
         inkscape:export-ydpi="96"
         inkscape:export-xdpi="96"
         transform="matrix(0.30667238,0,0,0.30667238,222.28216,11.026083)"
         style="font-style:normal;font-weight:normal;font-size:40px;line-height:1.25;font-family:sans-serif;text-align:center;letter-spacing:0px;word-spacing:0px;text-anchor:middle;fill:#000000;fill-opacity:1;stroke:none"
         id="flowRoot925-5"
         xml:space="preserve"><flowRegion
           id="flowRegion927-5"><rect
             y="220.614"
             x="88.893425"
             height="78.791901"
             width="290.92392"
             id="rect929-2" /></flowRegion><flowPara
           id="flowPara931-5">Integrate</flowPara></flowRoot>      <ellipse
         inkscape:export-filename="C:\Users\mrbor\Downloads\about page section\Integrate.png"
         inkscape:export-ydpi="96"
         inkscape:export-xdpi="96"
         ry="43.117889"
         rx="46.141697"
         cy="88.529755"
         cx="293.99646"
         id="path371-9-6"
         style="opacity:0.928;fill:none;fill-opacity:1;stroke:#213fff;stroke-width:1.2078048;stroke-miterlimit:4;stroke-dasharray:1.20780473, 2.41560948;stroke-dashoffset:0;stroke-opacity:1" />
    </g>
    <rect
       style="opacity:0.928;fill:none;fill-opacity:1;stroke:#213fff;stroke-width:1.26499999;stroke-miterlimit:4;stroke-dasharray:1.26499994, 2.52999987;stroke-dashoffset:0;stroke-opacity:1"
       id="rect1208"
       width="325.05951"
       height="83.910713"
       x="16.630953"
       y="182.09521"
       inkscape:export-xdpi="96"
       inkscape:export-ydpi="96"
       inkscape:export-filename="C:\Users\mrbor\Downloads\about page section\explore.png" />
    <flowRoot
       xml:space="preserve"
       id="flowRoot992"
       style="font-style:normal;font-weight:normal;font-size:40px;line-height:1.25;font-family:sans-serif;text-align:center;letter-spacing:0px;word-spacing:0px;text-anchor:middle;fill:#000000;fill-opacity:1;stroke:none"
       transform="matrix(1.3112651,0,0,1.3112651,-713.10096,-614.71251)"
       inkscape:export-xdpi="96"
       inkscape:export-ydpi="96"
       inkscape:export-filename="C:\Users\mrbor\Downloads\about page section\explore.png"><flowRegion
         id="flowRegion994"><rect
           id="rect996"
           width="1054.5992"
           height="187.88837"
           x="129.29953"
           y="612.55316" /></flowRegion><flowPara
         id="flowPara998"
         style="font-style:normal;font-variant:normal;font-weight:normal;font-stretch:normal;font-size:40.00016403px;font-family:frenchpress;-inkscape-font-specification:'frenchpress, Normal';font-variant-ligatures:normal;font-variant-caps:normal;font-variant-numeric:normal;font-feature-settings:normal;text-align:center;writing-mode:lr-tb;text-anchor:middle">Just explore online!</flowPara></flowRoot>    <path
       id="path1210"
       d="m 291.28109,235.73535 6.90648,3.79365 2.66083,-3.04782 3.76499,9.50405 5.37451,-9.21588 c 0,0 1.76994,-1.73497 0.0734,-4.46948 l -2.1317,-2.75271 c 8.18297,-6.02913 10.9885,-15.18322 11.68393,-22.43129 0.54534,-5.63569 -0.25896,-10.73997 -0.25896,-10.73997 0,0 -17.02801,3.03655 -23.93105,25.61948 l -4.954,-1.15324 c 0,0 -1.25421,-0.66113 -3.08416,2.13892 l -5.36859,8.77053 10.19187,0.42368 z m 17.27106,-25.71615 c 0.1141,-1.68481 1.54043,-2.94155 3.18823,-2.80218 1.64206,0.14078 2.88568,1.62353 2.77303,3.31424 -0.1141,1.6848 -1.54043,2.94154 -3.18823,2.80217 -1.64778,-0.13936 -2.88568,-1.62353 -2.77303,-3.31423 z"
       inkscape:connector-curvature="0"
       style="fill:#4e88c7;fill-opacity:1;stroke-width:0.59807336"
       inkscape:export-xdpi="96"
       inkscape:export-ydpi="96"
       inkscape:export-filename="C:\Users\mrbor\Downloads\about page section\explore.png" />
  </g>
</svg>
