<?xml version="1.0" encoding="UTF-8" standalone="no"?>
<!-- Generator: Adobe Illustrator 16.0.0, SVG Export Plug-In . SVG Version: 6.00 Build 0)  -->

<svg
   xmlns:dc="http://purl.org/dc/elements/1.1/"
   xmlns:cc="http://creativecommons.org/ns#"
   xmlns:rdf="http://www.w3.org/1999/02/22-rdf-syntax-ns#"
   xmlns:svg="http://www.w3.org/2000/svg"
   xmlns="http://www.w3.org/2000/svg"
   xmlns:sodipodi="http://sodipodi.sourceforge.net/DTD/sodipodi-0.dtd"
   xmlns:inkscape="http://www.inkscape.org/namespaces/inkscape"
   version="1.0"
   id="Layer_1"
   x="0px"
   y="0px"
   width="50px"
   height="50px"
   viewBox="0 0 50 50"
   enable-background="new 0 0 50 50"
   xml:space="preserve"
   sodipodi:docname="Sada_logo copy-04.svg"
   inkscape:version="0.92.3 (2405546, 2018-03-11)"><metadata
   id="metadata59"><rdf:RDF><cc:Work
       rdf:about=""><dc:format>image/svg+xml</dc:format><dc:type
         rdf:resource="http://purl.org/dc/dcmitype/StillImage" /></cc:Work></rdf:RDF></metadata><defs
   id="defs57" /><sodipodi:namedview
   pagecolor="#ffffff"
   bordercolor="#666666"
   borderopacity="1"
   objecttolerance="10"
   gridtolerance="10"
   guidetolerance="10"
   inkscape:pageopacity="0"
   inkscape:pageshadow="2"
   inkscape:window-width="1839"
   inkscape:window-height="1025"
   id="namedview55"
   showgrid="false"
   inkscape:zoom="9.44"
   inkscape:cx="1.6338244"
   inkscape:cy="25.384482"
   inkscape:window-x="81"
   inkscape:window-y="27"
   inkscape:window-maximized="1"
   inkscape:current-layer="g52" />
<g
   id="g52">
	<g
   id="g46">
		<path
   fill-rule="evenodd"
   clip-rule="evenodd"
   fill="#0D0D0D"
   d="M25.032,0.5C38.568,0.521,49.523,11.511,49.5,25.045    C49.476,38.576,38.472,49.535,24.943,49.5C11.404,49.463,0.462,38.463,0.5,24.931C0.538,11.418,11.521,0.479,25.032,0.5z     M48.998,25.017c0.004-13.269-10.708-24-23.969-24.015C11.766,0.988,1.014,11.709,1.003,24.958    C0.991,38.252,11.714,48.994,24.996,48.996C38.26,49,48.993,38.273,48.998,25.017z"
   id="path2" />
		<path
   fill-rule="evenodd"
   clip-rule="evenodd"
   fill="#A5A5A5"
   d="M17.996,19.1c-1.167,0.39-2.347,0.4-3.536,0.114    c-0.747-0.404-1.555-0.713-2.15-1.36c-2.562-2.729-1.903-6.393,0.684-8.259c2.775-2.003,6.688-0.87,8.031,2.364    c0.833,2.004,0.45,3.849-0.903,5.515c-0.125,0.155-0.255,0.307-0.383,0.46C19.203,18.391,18.574,18.708,17.996,19.1z     M15.115,14.208c-0.266,0.181-0.266,0.363-0.005,0.548c-0.026,0.191-0.054,0.383-0.08,0.574c-0.125,0.021-0.202,0.073-0.133,0.215    c-0.173,0.557-0.346,1.112-0.518,1.668c-0.054,0.173-0.165,0.393,0.043,0.49c0.246,0.115,0.344-0.136,0.428-0.308    c0.301-0.612,0.585-1.233,0.882-1.849c0.048-0.099,0.065-0.254,0.197-0.265c0.17-0.014,0.193,0.161,0.245,0.273    c0.281,0.604,0.548,1.214,0.831,1.816c0.082,0.175,0.177,0.432,0.413,0.344c0.245-0.091,0.116-0.329,0.066-0.519    c-0.265-0.99-0.707-1.929-0.721-2.991c-0.006-0.483,0.07-0.793,0.568-0.856c0.539-0.067,0.959-0.427,1.471-0.558    c0.121-0.03,0.272-0.104,0.207-0.28c-0.053-0.142-0.19-0.105-0.303-0.087c-0.492,0.08-0.98,0.187-1.476,0.241    c-0.511,0.057-1.014,0.236-1.532,0.155c-0.82-0.129-1.637-0.284-2.453-0.433c-0.159-0.029-0.35-0.136-0.412,0.105    c-0.053,0.205,0.111,0.288,0.283,0.343c0.428,0.139,0.845,0.337,1.283,0.407C14.999,13.339,15.182,13.662,15.115,14.208z     M16.753,11.467c0.01-0.449-0.323-0.817-0.751-0.83c-0.407-0.013-0.849,0.408-0.86,0.819c-0.012,0.42,0.408,0.84,0.836,0.835    C16.399,12.287,16.742,11.923,16.753,11.467z"
   id="path4" />
		<path
   fill-rule="evenodd"
   clip-rule="evenodd"
   fill="#4A4B4B"
   d="M30.36,35.975c-0.052,0.354,0.123,0.584,0.263,0.826    c0.34,0.588,0.685,1.17,1.016,1.764c0.041,0.074,0.147,0.18,0.064,0.264c-0.086,0.088-0.229,0.076-0.323,0    c-0.838-0.68-1.613-1.422-2.147-2.371c-0.214-0.381-0.157-0.812,0.092-1.17c0.842-1.209,1.865-2.221,3.223-2.846    c0.254-0.116,0.304-0.259,0.166-0.506c-0.169-0.303-0.302-0.625-0.459-0.935c-0.155-0.306-0.11-0.517,0.219-0.688    c0.849-0.442,0.84-0.451,1.302,0.398c0.118,0.217,0.261,0.421,0.399,0.626c0.206,0.305,0.429,0.409,0.857,0.367    c1.629-0.16,3.18,0.196,4.575,1.059c1.059,0.654,1.947,1.504,2.616,2.58c0.283,0.457,0.311,0.854,0.02,1.283    c-0.771,1.135-1.729,2.08-2.945,2.727c-0.405,0.217-0.517,0.461-0.326,0.863c0.077,0.164,0.136,0.336,0.211,0.5    c0.298,0.641,0.298,0.639-0.27,0.969c-0.594,0.348-0.729,0.316-1.064-0.295c-0.927-1.693-1.845-3.391-2.767-5.088    c-0.511-0.941-1.021-1.883-1.534-2.822c-0.056-0.102-0.072-0.275-0.277-0.184c-0.153,0.07-0.232,0.148-0.216,0.334    c0.033,0.357,0.218,0.654,0.378,0.953c0.889,1.656,1.801,3.301,2.687,4.959c0.094,0.174,0.274,0.391,0.014,0.623    c-0.243,0.215-0.438,0.061-0.637-0.033c-0.229-0.105-0.405-0.275-0.531-0.506c-0.831-1.539-1.668-3.074-2.511-4.605    c-0.126-0.232-0.287-0.443-0.438-0.66c-0.063-0.092-0.165-0.113-0.269-0.086c-0.132,0.035-0.097,0.154-0.106,0.246    c-0.034,0.336,0.15,0.602,0.293,0.877c0.767,1.475,1.539,2.945,2.312,4.414c0.037,0.072,0.121,0.137,0.069,0.221    c-0.065,0.107-0.186,0.068-0.273,0.041c-0.5-0.16-0.989-0.324-1.268-0.842c-0.555-1.035-1.134-2.057-1.702-3.084    c-0.056-0.102-0.09-0.227-0.171-0.301c-0.114-0.104-0.194-0.32-0.391-0.254C30.323,35.66,30.319,35.846,30.36,35.975z     M38.478,33.363c-0.018-0.021-0.036-0.043-0.054-0.062c-0.009,0.014-0.017,0.025-0.024,0.041c0.023,0.01,0.047,0.021,0.069,0.033    c0.028,0.074,0.047,0.154,0.088,0.221c0.896,1.449,0.812,2.832-0.26,4.162c-0.062,0.078-0.134,0.15-0.188,0.234    c-0.159,0.244-0.116,0.475,0.066,0.688c0.187,0.217,0.364,0.062,0.537-0.023c1.086-0.539,1.938-1.346,2.636-2.324    c0.098-0.139,0.202-0.277,0.078-0.453C40.657,34.791,39.774,33.836,38.478,33.363z M38.081,35.371    c-0.018-1.027-0.989-2.027-2.026-2.117c-0.233-0.02-0.509-0.029-0.554,0.277c-0.045,0.309,0.216,0.369,0.451,0.42    c0.96,0.213,1.259,0.512,1.427,1.459c0.041,0.234,0.112,0.447,0.387,0.414C38.03,35.793,38.075,35.561,38.081,35.371z"
   id="path6" />
		<path
   fill-rule="evenodd"
   clip-rule="evenodd"
   fill="#4A4B4B"
   d="M32.979,9.828c1.886,0,3.771,0.008,5.655-0.008    c0.34-0.003,0.451,0.07,0.449,0.434c-0.016,2.77-0.018,5.538,0.002,8.308c0.002,0.392-0.12,0.461-0.479,0.46    c-3.771-0.013-7.54-0.013-11.311,0c-0.343,0.001-0.451-0.079-0.448-0.438c0.015-2.769,0.018-5.538-0.003-8.308    c-0.002-0.395,0.124-0.459,0.479-0.455C29.209,9.837,31.095,9.828,32.979,9.828z M32.938,17.814    c1.165-0.05,2.334-0.03,3.493-0.187c0.868-0.117,1.223-0.412,1.362-1.269c0.209-1.273,0.191-2.562,0.026-3.836    c-0.128-0.99-0.508-1.289-1.514-1.404c-1.312-0.15-2.63-0.142-3.946-0.132c-0.934,0.006-1.867,0.022-2.796,0.145    c-0.958,0.126-1.297,0.421-1.428,1.369c-0.171,1.243-0.17,2.496-0.004,3.738c0.132,0.98,0.484,1.272,1.46,1.396    C30.704,17.775,31.822,17.757,32.938,17.814z"
   id="path8" />
		<path
   fill-rule="evenodd"
   clip-rule="evenodd"
   fill="#4A4B4B"
   d="M26.142,47.338c-0.538-0.551-0.999-1.008-1.44-1.482    c-0.185-0.199-0.38-0.283-0.653-0.273c-0.516,0.021-1.033-0.01-1.549,0.014c-0.29,0.012-0.364-0.088-0.358-0.367    c0.017-0.918,0.015-1.834,0-2.75c-0.004-0.266,0.081-0.344,0.339-0.336c0.517,0.016,1.034-0.01,1.55,0.01    c0.29,0.012,0.502-0.072,0.702-0.285c0.438-0.469,0.899-0.914,1.41-1.428C26.142,42.758,26.142,44.98,26.142,47.338z"
   id="path10" />
		<path
   fill-rule="evenodd"
   clip-rule="evenodd"
   fill="#4A4B4B"
   d="M19.036,35.467c0.012,0.639-0.199,1.209-0.537,1.74    c-0.116,0.184-0.239,0.363-0.379,0.527c-0.643,0.76-0.946,1.607-0.898,2.623c0.049,1.045-0.606,1.744-1.615,1.887    c-0.315,0.045-0.61-0.016-0.655-0.363c-0.046-0.35,0.28-0.348,0.523-0.387c0.583-0.096,1.034-0.514,0.981-1.074    c-0.119-1.262,0.423-2.234,1.146-3.197c1.338-1.785,0.631-3.949-1.448-4.586c-1.586-0.486-3.306,0.627-3.61,2.336    c-0.02,0.113-0.016,0.236-0.049,0.346c-0.064,0.211-0.053,0.51-0.393,0.48c-0.331-0.029-0.301-0.301-0.308-0.533    c-0.012-0.424,0.089-0.83,0.252-1.215c0.673-1.603,2.375-2.502,4.082-2.168C17.817,32.214,19.035,33.715,19.036,35.467z"
   id="path12" />
		<path
   fill-rule="evenodd"
   clip-rule="evenodd"
   fill="#4A4B4B"
   d="M17.929,35.299c0.003,0.168,0.021,0.357-0.197,0.402    c-0.236,0.049-0.322-0.133-0.379-0.312c-0.118-0.379-0.146-0.791-0.394-1.123c-0.468-0.623-1.079-0.939-1.867-0.807    c-0.754,0.129-1.248,0.592-1.54,1.283c-0.052,0.121-0.07,0.256-0.111,0.383c-0.075,0.232,0.011,0.668-0.349,0.602    c-0.403-0.076-0.231-0.482-0.176-0.762c0.257-1.303,1.464-2.197,2.775-2.068C16.842,33.008,17.9,34.145,17.929,35.299z"
   id="path14" />
		<path
   fill-rule="evenodd"
   clip-rule="evenodd"
   fill="#4A4B4B"
   d="M30.161,43.861c0.033,1.178-0.374,2.152-1.09,3.014    c-0.119,0.145-0.207,0.305-0.416,0.076c-0.155-0.17-0.217-0.25-0.037-0.473c1.312-1.617,1.312-3.572,0.003-5.207    c-0.176-0.217-0.122-0.309,0.035-0.477c0.213-0.227,0.306-0.055,0.422,0.086C29.804,41.758,30.211,42.748,30.161,43.861z"
   id="path16" />
		<path
   fill-rule="evenodd"
   clip-rule="evenodd"
   fill="#4A4B4B"
   d="M16.857,29.593c0.081-0.175,0.183-0.288,0.403-0.194    c0.221,0.095,0.451,0.167,0.678,0.249c1.615,0.74,2.779,1.917,3.441,3.573c0.064,0.162,0.244,0.34-0.1,0.463    c-0.307,0.109-0.366-0.043-0.456-0.262c-0.701-1.698-1.929-2.844-3.667-3.435C16.949,29.917,16.768,29.87,16.857,29.593z"
   id="path18" />
		<path
   fill-rule="evenodd"
   clip-rule="evenodd"
   fill="#4A4B4B"
   d="M29.046,43.908c-0.026,0.816-0.289,1.553-0.822,2.188    c-0.099,0.119-0.19,0.258-0.338,0.055c-0.092-0.127-0.302-0.168-0.117-0.43c0.954-1.359,0.953-2.338-0.002-3.697    c-0.184-0.262,0.027-0.305,0.119-0.43c0.146-0.199,0.24-0.066,0.341,0.057C28.766,42.303,29.033,43.053,29.046,43.908z"
   id="path20" />
		<path
   fill-rule="evenodd"
   clip-rule="evenodd"
   fill="#4A4B4B"
   d="M20.262,33.865c-0.003,0.199-0.174,0.172-0.285,0.225    c-0.231,0.105-0.246-0.096-0.296-0.219c-0.401-0.996-1.076-1.752-1.99-2.302c-0.302-0.181-0.622-0.321-0.961-0.416    c-0.238-0.066-0.188-0.209-0.14-0.388c0.054-0.203,0.142-0.211,0.321-0.15c1.565,0.521,2.654,1.549,3.287,3.066    C20.225,33.742,20.242,33.807,20.262,33.865z"
   id="path22" />
		<path
   fill-rule="evenodd"
   clip-rule="evenodd"
   fill="#4A4B4B"
   d="M27.87,43.873c0.034,0.521-0.149,0.977-0.45,1.391    c-0.086,0.119-0.184,0.271-0.341,0.08c-0.1-0.121-0.321-0.178-0.131-0.432c0.505-0.678,0.508-1.393,0.004-2.074    c-0.208-0.281,0.05-0.35,0.166-0.465c0.191-0.189,0.254,0.053,0.324,0.148C27.736,42.92,27.902,43.365,27.87,43.873z"
   id="path24" />
		<path
   fill-rule="evenodd"
   clip-rule="evenodd"
   fill="#4A4B4B"
   d="M13.29,38.639c-0.133,0.01-0.864-0.658-0.846-0.758    c0.035-0.191,0.208-0.283,0.348-0.387c0.05-0.039,0.814,0.68,0.805,0.762C13.571,38.457,13.371,38.516,13.29,38.639z"
   id="path26" />
		<path
   fill-rule="evenodd"
   clip-rule="evenodd"
   fill="#4A4B4B"
   d="M14.489,36.871c-0.027,0.154-0.117,0.254-0.265,0.252    c-0.177-0.002-0.277-0.129-0.258-0.293c0.016-0.139,0.128-0.24,0.281-0.221C14.392,36.627,14.478,36.727,14.489,36.871z"
   id="path28" />
		<path
   fill-rule="evenodd"
   clip-rule="evenodd"
   fill="#4A4B4B"
   d="M12.094,39.242c-0.027,0.17-0.107,0.271-0.256,0.283    c-0.153,0.012-0.259-0.09-0.27-0.23c-0.014-0.17,0.092-0.287,0.267-0.283C11.981,39.014,12.054,39.131,12.094,39.242z"
   id="path30" />
		<path
   fill-rule="evenodd"
   clip-rule="evenodd"
   fill="#4A4B4B"
   d="M15.658,35.703c-0.025,0.145-0.103,0.254-0.256,0.246    c-0.171-0.008-0.278-0.119-0.258-0.293c0.018-0.146,0.126-0.232,0.278-0.219C15.576,35.449,15.654,35.547,15.658,35.703z"
   id="path32" />
		<path
   fill-rule="evenodd"
   clip-rule="evenodd"
   fill="#4A4B4B"
   d="M10.648,40.691c-0.163,0-0.251-0.086-0.254-0.244    c-0.002-0.158,0.094-0.25,0.248-0.254c0.157-0.004,0.254,0.105,0.259,0.25C10.907,40.594,10.81,40.686,10.648,40.691z"
   id="path34" />
		<path
   fill-rule="evenodd"
   clip-rule="evenodd"
   fill="#E3E3E3"
   d="M15.115,14.208c-0.002,0.183-0.003,0.365-0.005,0.547    C14.85,14.571,14.85,14.389,15.115,14.208z"
   id="path36" />
		<path
   fill-rule="evenodd"
   clip-rule="evenodd"
   fill="#E3E3E3"
   d="M15.03,15.33c0.006,0.104-0.034,0.179-0.134,0.215    C14.828,15.403,14.905,15.352,15.03,15.33z"
   id="path38" />
		<path
   fill-rule="evenodd"
   clip-rule="evenodd"
   fill="#FCFCFC"
   d="M38.469,33.375c-0.022-0.012-0.046-0.023-0.069-0.033    c0.008-0.016,0.016-0.027,0.024-0.041c0.018,0.02,0.036,0.041,0.054,0.062L38.469,33.375z"
   id="path40" />
		<path
   fill-rule="evenodd"
   clip-rule="evenodd"
   fill="#4A4B4B"
   d="M28.846,14.562c-0.018-0.561,0.083-1.097,0.354-1.591    c0.438-0.8,1.194-1.134,2.114-0.944c0.758,0.156,1.331,0.843,1.406,1.686c0.006,0.063,0.028,0.146-0.001,0.189    c-0.107,0.161-1.16,0.035-1.217-0.152c-0.109-0.358-0.306-0.612-0.703-0.574c-0.43,0.04-0.553,0.396-0.618,0.747    c-0.087,0.461-0.093,0.933,0.013,1.392c0.076,0.333,0.271,0.581,0.645,0.6c0.357,0.018,0.535-0.202,0.644-0.517    c0.086-0.251,1.102-0.444,1.249-0.242c0.032,0.044,0.021,0.126,0.018,0.189c-0.043,0.757-0.644,1.512-1.349,1.699    c-0.823,0.219-1.659-0.08-2.11-0.768C28.948,15.758,28.837,15.174,28.846,14.562z"
   id="path42" />
		<path
   fill-rule="evenodd"
   clip-rule="evenodd"
   fill="#4A4B4B"
   d="M34.372,14.615c-0.009,0.303,0.012,0.604,0.135,0.883    c0.117,0.266,0.324,0.422,0.625,0.418c0.285-0.004,0.441-0.175,0.568-0.416c0.069-0.132-0.019-0.381,0.226-0.39    c0.332-0.013,0.667-0.011,0.996,0.021c0.122,0.012,0.064,0.164,0.058,0.257c-0.054,0.726-0.615,1.447-1.276,1.644    c-0.791,0.235-1.629-0.03-2.103-0.667c-0.707-0.948-0.689-2.739,0.035-3.676c0.482-0.624,1.213-0.857,2.015-0.645    c0.691,0.184,1.223,0.842,1.315,1.607c0.023,0.198,0.007,0.324-0.241,0.309c-0.216-0.014-0.434-0.013-0.649,0    c-0.197,0.013-0.293-0.047-0.342-0.255c-0.081-0.345-0.315-0.562-0.683-0.533c-0.349,0.027-0.495,0.298-0.585,0.603    C34.384,14.05,34.364,14.331,34.372,14.615z"
   id="path44" />
	</g>
	<path
   d="m 45.879746,21.068271 c 0,2.346 0,4.659 0,7.016 -13.357,0 -26.705,0 -40.0900002,0 0,-2.331 0,-4.658 0,-7.016 13.3540002,0 26.6910002,0 40.0900002,0 z"
   id="path48"
   inkscape:connector-curvature="0"
   style="clip-rule:evenodd;fill:none;fill-rule:evenodd;stroke-width:0.1;stroke-miterlimit:4;stroke-dasharray:none;stroke:#000000;stroke-opacity:1;fill-opacity:1" />
	<text
   transform="matrix(1 0 0 1 7.9297 26.4492)"
   font-family="'Gilroy-ExtraBold'"
   font-size="5"
   id="text50">ACCESSIBILITY</text>


</g>
</svg>