<?xml version="1.0" encoding="UTF-8" standalone="no"?>
<!-- Generator: Adobe Illustrator 16.0.0, SVG Export Plug-In . SVG Version: 6.00 Build 0)  -->

<svg
   xmlns:dc="http://purl.org/dc/elements/1.1/"
   xmlns:cc="http://creativecommons.org/ns#"
   xmlns:rdf="http://www.w3.org/1999/02/22-rdf-syntax-ns#"
   xmlns:svg="http://www.w3.org/2000/svg"
   xmlns="http://www.w3.org/2000/svg"
   xmlns:sodipodi="http://sodipodi.sourceforge.net/DTD/sodipodi-0.dtd"
   xmlns:inkscape="http://www.inkscape.org/namespaces/inkscape"
   version="1.0"
   id="Layer_1"
   x="0px"
   y="0px"
   width="50px"
   height="50px"
   viewBox="0 0 50 50"
   enable-background="new 0 0 50 50"
   xml:space="preserve"
   sodipodi:docname="Sada_logo copy-05.svg"
   inkscape:version="0.92.3 (2405546, 2018-03-11)"><metadata
   id="metadata75"><rdf:RDF><cc:Work
       rdf:about=""><dc:format>image/svg+xml</dc:format><dc:type
         rdf:resource="http://purl.org/dc/dcmitype/StillImage" /></cc:Work></rdf:RDF></metadata><defs
   id="defs73" /><sodipodi:namedview
   pagecolor="#ffffff"
   bordercolor="#666666"
   borderopacity="1"
   objecttolerance="10"
   gridtolerance="10"
   guidetolerance="10"
   inkscape:pageopacity="0"
   inkscape:pageshadow="2"
   inkscape:window-width="1839"
   inkscape:window-height="1025"
   id="namedview71"
   showgrid="false"
   inkscape:zoom="13.350176"
   inkscape:cx="26.455045"
   inkscape:cy="20.070545"
   inkscape:window-x="81"
   inkscape:window-y="27"
   inkscape:window-maximized="1"
   inkscape:current-layer="Layer_1" />
<g
   id="g64">
	<path
   fill-rule="evenodd"
   clip-rule="evenodd"
   fill="#212121"
   d="M24.992,49.5C11.46,49.496,0.496,38.524,0.5,24.993   S11.477,0.496,25.008,0.5C38.54,0.505,49.503,11.476,49.5,25.008C49.497,38.539,38.524,49.505,24.992,49.5z M48.989,25.011   c0.002-13.264-10.72-23.995-23.979-24C11.771,1.006,1.026,11.719,1.011,24.94c-0.016,13.298,10.7,24.046,23.979,24.05   C38.252,48.993,48.986,38.269,48.989,25.011z"
   id="path2" />
	<path
   fill-rule="evenodd"
   clip-rule="evenodd"
   fill="#212121"
   d="M25.024,18.021c-2.054,0-4.107-0.01-6.16,0.009   c-0.358,0.003-0.437-0.104-0.436-0.446c0.013-3.589,0.013-7.178,0-10.767c-0.001-0.331,0.09-0.409,0.413-0.408   c4.139,0.011,8.279,0.011,12.419,0c0.326-0.001,0.411,0.083,0.41,0.41c-0.013,3.589-0.013,7.178,0,10.767   c0.002,0.346-0.082,0.447-0.438,0.444C29.164,18.012,27.094,18.021,25.024,18.021z M25.024,17.173c1.817,0,3.636-0.007,5.454,0.007   c0.304,0.002,0.391-0.072,0.389-0.385c-0.014-2.502-0.015-5.004,0-7.506c0.002-0.33-0.089-0.412-0.413-0.411   c-3.603,0.011-7.205,0.011-10.809,0c-0.323-0.001-0.415,0.079-0.414,0.41c0.016,2.485,0.017,4.971,0,7.455   c-0.002,0.351,0.089,0.441,0.438,0.438C21.455,17.163,23.239,17.173,25.024,17.173z M25.035,8.037c0.715,0,1.431-0.019,2.145,0.009   c0.333,0.013,0.39-0.113,0.369-0.401c-0.018-0.235,0.043-0.441-0.339-0.436c-1.446,0.023-2.894,0.022-4.341,0.002   c-0.399-0.006-0.294,0.239-0.314,0.454c-0.025,0.257,0.024,0.39,0.335,0.38C23.604,8.021,24.32,8.037,25.035,8.037z M29.982,8.037   c0.215,0,0.43,0,0.645-0.001c0.081,0,0.205,0.015,0.214-0.073c0.024-0.212,0.047-0.436,0.001-0.64   c-0.043-0.193-0.251-0.093-0.384-0.1c-0.281-0.015-0.564,0.014-0.844-0.01c-0.311-0.026-0.428,0.055-0.429,0.4   c-0.001,0.357,0.112,0.474,0.449,0.426C29.748,8.023,29.866,8.037,29.982,8.037z M19.245,7.563   c-0.019,0.274-0.069,0.523,0.348,0.484c0.283-0.026,0.516,0.017,0.478-0.401c-0.026-0.279-0.016-0.48-0.392-0.436   C19.426,7.241,19.142,7.17,19.245,7.563z M21.717,7.662c0.052-0.265,0.056-0.481-0.345-0.453c-0.289,0.021-0.512-0.01-0.479,0.405   c0.023,0.288,0.031,0.476,0.396,0.429C21.534,8.012,21.841,8.104,21.717,7.662z"
   id="path4" />
	<path
   fill-rule="evenodd"
   clip-rule="evenodd"
   fill="#212121"
   d="M39.434,27.765c0.251,0.002,0.503,0.004,0.753,0.006   c-0.347,2.167-1.735,3.456-3.651,4.269c-1.151,0.487-2.346,0.753-3.603,0.41c-0.237-0.065-0.52-0.346-0.672-0.218   c-0.211,0.175-0.032,0.528-0.036,0.806c-0.004,0.323,0.107,0.625,0.258,0.906c0.138,0.258,0.151,0.531,0.191,0.812   c0.1,0.708-0.217,1.144-0.817,1.43c-0.294,0.142-0.503,0.283-0.309,0.674c0.102,0.2,0.076,0.468-0.018,0.687   c-0.132,0.307-0.397,0.588,0.096,0.847c0.134,0.069,0.081,0.312-0.131,0.38c-0.076,0.025-0.198,0.054-0.242,0.015   c-0.566-0.492-1.09,0.016-1.633,0.047c-0.899,0.051-1.809,0.105-2.7,0.018c-0.61-0.061-1.17-0.411-1.626-0.858   c-0.136-0.134-0.247-0.281-0.464-0.17c-1.053,0.543-2.021,0.357-2.942-0.327c-0.262-0.194-0.528-0.146-0.829,0.008   c-0.621,0.316-1.269,0.586-1.915,0.85c-0.229,0.093-0.489,0.09-0.742,0.044c-0.189-0.035-0.379-0.074-0.369-0.319   c0.009-0.229,0.177-0.332,0.375-0.317c0.682,0.051,1.158-0.431,1.755-0.593c-0.004-0.043-0.008-0.085-0.012-0.128   c-0.149,0-0.3,0-0.45,0c-0.472,0.001-0.887-0.15-1.228-0.477c-0.34-0.325-0.469-0.846-0.957-1.036   c-0.025-0.01-0.053-0.054-0.053-0.082c-0.004-0.866-0.621-1.648-0.356-2.562c-0.693-0.108-1.386,0.074-2.083,0.076   c-0.448,0-0.909,0.079-1.088-0.54c0.579-0.112,1.165-0.042,1.864-0.067c-2.036-0.959-3.168-2.472-3.496-4.579   c0.307,0.002,0.614,0.085,0.921-0.002c0.209,1.73,0.794,3.232,2.466,4.077c0.042,0.013,0.112,0.048,0.123,0.035   c0.059-0.076,0-0.109-0.067-0.133c-0.182-0.192-0.348-0.401-0.549-0.57c-0.176-0.147-0.261-0.256-0.065-0.453   c0.229-0.234,0.309,0.037,0.405,0.124c0.519,0.469,1.018,0.959,1.532,1.432c0.084,0.077,0.195,0.273,0.32,0.138   c0.211-0.229,0.545-0.305,0.678-0.637c0.186-0.464,0.557-0.78,0.985-1.028c0.099-0.057,0.227-0.107,0.277-0.197   c0.424-0.746,1.144-1.017,1.91-1.205c0.487-0.12,1.088-0.074,1.448-0.35c0.654-0.501,1.412-0.282,2.089-0.519   c0.29-0.103,0.631-0.033,0.915,0.147c0.117,0.074,0.224,0.104,0.367,0.025c0.64-0.35,1.318-0.313,1.908,0.037   c0.54,0.32,1.024,0.684,1.701,0.583c0.108-0.017,0.237,0.102,0.356,0.157c-0.079,0.154-0.17,0.261-0.373,0.168   c-0.11-0.05-0.249-0.1-0.339,0.054c-0.34-0.126-0.568-0.091-0.576,0.351c-0.003,0.174-0.072,0.347-0.111,0.521   c-0.055-0.241-0.135-0.48-0.159-0.725c-0.044-0.448-0.247-0.737-0.706-0.814c-1.294-0.313-1.526-0.23-1.919,0.689   c-0.161-0.321-0.022-0.891-0.671-0.807c-0.216,0.006-0.474-0.062-0.64,0.033c-0.307,0.174,0.178,0.354,0.062,0.574   c-0.033,0.065,0.014,0.168-0.005,0.247c-0.065,0.285-0.014,0.521,0.287,0.649c-0.132,0.123-0.253,0.11-0.367,0.107   c-0.413-0.007-0.567,0.213-0.539,0.599c0.008,0.101,0.018,0.2,0.02,0.3c0.002,0.077,0.023,0.178-0.093,0.191   c-0.11,0.014-0.137-0.082-0.148-0.161c-0.052-0.342-0.167-0.693,0.125-0.991c0.382-0.129,0.419-0.427,0.377-0.765   c-0.111-0.625-0.465-0.823-0.99-0.547c-0.128,0.067-0.241,0.16-0.361,0.24c-0.339-0.001-0.661,0.082-0.975,0.204   c-0.602,0.137-1.207,0.256-1.746,0.578c-0.467,0.279-0.525,0.445-0.348,1.02c0.144-0.084,0.277-0.182,0.426-0.246   c0.235-0.104,0.367-0.052,0.525,0.173c0.001,0-0.027-0.02-0.027-0.02l-0.026,0.02c-0.824,0.105-1.586,1.188-1.427,2.024   c-0.191-0.061-0.155-0.331-0.354-0.385c-0.413,0.366-0.832,0.731-0.576,1.378c-0.061,0.031-0.12,0.062-0.181,0.092   c-0.273-0.256-0.303-0.605-0.121-0.865c0.277-0.397,0.129-0.666-0.135-0.991c-0.182,0.248-0.388,0.44-0.494,0.734   c-0.149,0.41-0.161,0.794,0.163,1.091c0.361,0.332-0.192,0.805,0.216,1.102c0.024,0.018,0.033,0.057,0.052,0.084   c0.131,0.202,0.295,0.053,0.444,0.038c0.193-0.019,0.146-0.132,0.092-0.245c0.069-0.023,0.139-0.046,0.208-0.069   c0.112,0.12,0.225,0.241,0.336,0.36c0.052,0.04,0.101,0.087,0.157,0.119c0.178,0.103,0.39,0.188,0.561,0.064   c0.185-0.134-0.052-0.289-0.061-0.443c-0.009-0.147-0.05-0.287-0.011-0.439c0.08-0.323,0.062-0.641-0.118-0.934   c0.294-0.017,0.371,0.172,0.373,0.412c0.002,0.266-0.031,0.533-0.017,0.799c0.024,0.48,0.349,0.676,0.826,0.581   c0.286-0.057,0.477-0.207,0.651-0.409c0.381-0.465,0.018-0.821-0.176-1.202c0.35-0.001,0.457,0.272,0.576,0.522   c0.069,0.145,0.121,0.224,0.282,0.087c0.177-0.148,0.377-0.27,0.563-0.404c0.113-0.082,0.161-0.196,0.021-0.276   c-0.198-0.112-0.366-0.283-0.609-0.314c-0.118-0.015-0.291,0.091-0.34-0.096c-0.041-0.158,0.135-0.209,0.222-0.296   c0.091-0.091,0.209-0.155,0.314-0.231c0.034,0.042,0.068,0.084,0.103,0.126c-0.116,0.61,0.598,0.448,0.773,0.818   c0.079,0.166,0.279-0.025,0.421-0.108c0.271-0.161,0.43-0.393,0.517-0.686l-0.006,0.012c0.441,0.101,0.835,0.013,1.178-0.288   c0.06-0.002,0.082-0.033,0.073-0.09c0.018-0.389,0.035-0.776,0.054-1.164c0.048,0.067,0.093,0.058,0.136-0.006   c0.05,0.158,0.075,0.33,0.157,0.469c0.114,0.196-0.152,0.56,0.243,0.607c0.241,0.03,0.487-0.007,0.736-0.059   c0.376-0.078,0.464-0.38,0.629-0.632c0.063,0.066,0.141,0.066,0.221,0.038c-0.204,0.388-0.32,0.771,0.179,1.123   c-0.37,0.069-0.447-0.141-0.576-0.266c-0.063-0.117-0.131-0.105-0.2-0.007c-0.352,0.182-0.735,0.043-1.098,0.114   c-0.233-0.068-0.37,0.036-0.449,0.248c-0.249,0.089-0.489,0.199-0.761,0.216c-0.402,0.023-0.621,0.26-0.694,0.645   c-0.286,0.103-0.572,0.204-0.858,0.306c-0.554,0.244-1.047,0.57-1.414,1.06c-0.29,0.389-0.328,0.802-0.034,1.204   c0.459,0.627,1.103,1.015,1.843,1.149c0.489,0.089,1.013-0.019,1.249-0.593c0.14-0.355-0.091-0.556-0.317-0.759   c-0.082-0.076-0.139-0.165-0.13-0.283c0.416,0.078,0.564,0.419,0.705,0.748c0.152,0.354,0.356,0.502,0.729,0.295   c0.083-0.047,0.188-0.055,0.283-0.079c0.453-0.018,0.496-0.271,0.361-0.627c-0.138-0.361-0.388-0.688-0.349-1.105   c0.042,0.009,0.084,0.018,0.126,0.026l0.004,0.014l0.007-0.021c0.188,0.155,0.191,0.464,0.46,0.551   c-0.097,0.939,0.03,1.081,0.918,1.029c0.098-0.006,0.196-0.014,0.294-0.021c0.296,0.086,0.594,0.193,0.854-0.082   c0.149,0.101,0.311,0.095,0.477,0.056c0.61-0.144,1.203-0.34,1.77-0.61c0.412-0.098,0.746-0.259,0.626-0.782   c0.646,0.084,0.92-0.099,0.954-0.637c0.046-0.704-0.248-1.041-0.901-1.045c-0.394-0.002-0.792,0.011-1.129-0.251   c0.054-0.032,0.112-0.062,0.059-0.14c0.422-0.028,0.85,0.204,1.267-0.031l0.027,0.016l0.032-0.011   c0.067-0.01,0.134-0.021,0.199-0.031l0.007-0.009c-0.021-0.033-0.041-0.066-0.062-0.1c0-0.834,0.005-1.669-0.715-2.277   c-0.401-0.236-0.642-0.615-0.877-0.998c0.034-0.052,0.069-0.104,0.104-0.156c0.049,0.003,0.125-0.012,0.142,0.013   c0.389,0.565,1.046,0.892,1.361,1.516c0.086,0.17,0.213,0.174,0.357,0.205c0.872,0.19,1.749,0.229,2.627,0.057   C37.112,31.228,38.771,30.078,39.434,27.765z M20.375,36.455c-0.412-0.021-0.822-0.043-1.233-0.064   c0.41,0.333,0.848,0.206,1.281,0.14c0.063,0.007,0.085-0.032,0.058-0.078C20.456,36.41,20.408,36.398,20.375,36.455z    M19.033,31.265l0.01-0.004c-0.428,0.052-0.567,0.399-0.717,0.721c-0.109,0.239-0.053,0.49,0.201,0.583   c0.241,0.088,0.447-0.074,0.554-0.289c0.077-0.156,0.079-0.351,0.227-0.478c0.304-0.416,0.252-0.632-0.164-0.69   C19.106,31.16,19.069,31.212,19.033,31.265z M29.214,37.277c-0.325,0.062-0.822,0.356-0.9,0.277   c-0.328-0.33-0.683-0.132-1.012-0.188c-0.439-0.074-0.506,0.2-0.454,0.55c0.04,0.265,0.207,0.467,0.411,0.604   c0.487,0.329,1.978,0.122,2.386-0.307c0.065,0.069,0.123,0.188,0.198,0.201c0.698,0.125,1.593-0.911,1.378-1.579   c-0.071-0.218-0.198-0.321-0.403-0.182C30.329,36.986,29.752,37.081,29.214,37.277z M13.471,29.712   c-0.148-0.494-0.295-0.99-0.449-1.483c-0.021-0.065-0.077-0.164-0.165-0.125c-0.12,0.054-0.134,0.149-0.089,0.286   C12.923,28.865,13.1,29.327,13.471,29.712z M19.023,36.325c-0.03-0.064-0.074-0.044-0.116-0.028c-0.047,0.02-0.046,0.041,0,0.06   c0.028,0.011,0.058,0.027,0.085,0.025C19.005,36.381,19.015,36.342,19.023,36.325z"
   id="path6" />
	<path
   fill-rule="evenodd"
   clip-rule="evenodd"
   fill="#212121"
   d="M11.251,22.229c-0.308,0-0.613,0.001-0.92,0.001   c-0.108-0.732-0.087-1.463,0.053-2.188c0.028-0.147,0.003-0.253-0.089-0.366c-1.799-2.23-1.115-5.022,0.819-6.679   c1.143-0.979,2.465-1.57,3.962-1.75c0.805-0.096,1.625,0.199,2.129,0.739c-0.257,0.146-0.529,0.096-0.805,0.075   c-2.475-0.187-5.331,1.07-6.251,3.831c-0.359,1.081-0.438,2.155,0.529,3.074c0.3-0.7,0.648-1.34,1.192-1.843   c0.857-0.793,1.84-1.221,3.014-0.856c1.097,0.34,1.558,1.341,1.171,2.425c-0.668,1.867-2.847,2.758-4.622,1.867   c-0.351-0.176-0.391-0.058-0.398,0.241C11.022,21.291,11.156,21.757,11.251,22.229z M10.54,21.243   c-0.014,0.162-0.06,0.334,0.114,0.477c0.074-0.172,0.069-0.312,0.044-0.455c-0.052-0.367,0.234-0.745,0.081-1.109   c-0.051,0.001-0.101,0.002-0.151,0.002C10.599,20.52,10.569,20.881,10.54,21.243z M12.536,20.235   c0.916,0.014,1.974-0.46,2.721-1.154c0.658-0.612,0.655-1.213-0.03-1.81c-0.439-0.382-0.948-0.534-1.529-0.377   c-1.15,0.312-1.799,1.127-2.22,2.183c-0.225,0.562-0.078,0.895,0.509,1.062C12.207,20.203,12.443,20.22,12.536,20.235z    M11.8,17.767c-0.434,0.426-0.774,0.91-0.801,1.548C11.207,18.771,11.591,18.319,11.8,17.767z M13.271,12.215   c0.641-0.139,1.259-0.354,1.908-0.443C14.488,11.68,13.863,11.878,13.271,12.215z"
   id="path8" />
	<path
   fill-rule="evenodd"
   clip-rule="evenodd"
   fill="#212121"
   d="M41.789,22.229c-0.207,0-0.414,0-0.622,0.001   c0.021-0.472-0.246-0.845-0.428-1.259c-0.353,0.425-0.697,0.842-1.041,1.259c-0.463,0-0.927,0.001-1.389,0.001   c0.567-0.377,1.133-0.748,1.51-1.35c0.467-0.746,0.34-1.151-0.515-1.436c-0.2-0.067-0.419-0.097-0.632-0.115   c-0.882-0.077-1.665,0.229-2.405,0.661c-0.855,0.499-0.936,1.251-0.225,1.945c0.106,0.104,0.222,0.195,0.333,0.293   c-0.349,0-0.698,0-1.047,0.001c-0.472-0.943-0.318-1.765,0.484-2.584c1.219-1.245,3.054-1.413,4.449-0.372   c0.359,0.269,0.36,0.044,0.406-0.195c0.348-1.771-0.324-3.214-1.425-4.539c-0.602-0.724-1.342-1.178-2.246-1.389   c-0.081-0.019-0.164-0.041-0.245-0.043c-0.082-0.003-0.165,0.018-0.354,0.041c0.317,0.143,0.539,0.274,0.777,0.342   c0.371,0.104,0.453,0.283,0.238,0.601c-0.886-0.246-1.654-0.764-2.507-1.088c-0.143-0.054-0.251-0.167-0.047-0.274   c0.921-0.484,1.857-0.931,2.864-1.193c0.076,0.188-0.135,0.155-0.112,0.28c0.144,0.01,0.29,0.021,0.558,0.04   c-0.528,0.42-1.104,0.473-1.613,0.716c0.102,0.156,0.254,0.134,0.387,0.154c2.735,0.41,4.873,2.967,4.634,5.557   c-0.046,0.502-0.142,0.991-0.323,1.455c-0.113,0.29-0.122,0.523,0.04,0.789C41.612,21.048,41.684,21.646,41.789,22.229z    M40.929,17.288c0.156-1.061-0.529-2.396-1.471-2.854C40.11,15.302,40.688,16.206,40.929,17.288z M40.466,20.428   c-0.337,0.509-0.622,0.914-1,1.302C39.963,21.6,40.413,21.046,40.466,20.428z M40.881,19.82c0.199-0.388,0.361-0.783,0.308-1.228   C41.118,19.009,40.738,19.357,40.881,19.82z"
   id="path10" />
	<path
   fill-rule="evenodd"
   clip-rule="evenodd"
   fill="#212121"
   d="M23.681,40.715c-0.009,0.931-0.772,1.676-1.699,1.657   c-0.926-0.019-1.656-0.785-1.638-1.72c0.019-0.894,0.789-1.65,1.675-1.646C22.931,39.011,23.689,39.791,23.681,40.715z    M22.007,39.254c-0.81,0.002-1.462,0.659-1.449,1.462c0.012,0.795,0.698,1.46,1.485,1.44c0.783-0.02,1.412-0.664,1.416-1.451   C23.464,39.89,22.825,39.251,22.007,39.254z"
   id="path12" />
	<path
   fill-rule="evenodd"
   clip-rule="evenodd"
   fill="#212121"
   d="M28.755,40.644c0.002,1.057-0.631,1.738-1.611,1.735   c-0.913-0.003-1.657-0.738-1.671-1.649c-0.015-0.917,0.763-1.701,1.683-1.698C28.065,39.034,28.753,39.727,28.755,40.644z    M28.559,40.688c-0.002-0.819-0.587-1.417-1.396-1.424c-0.807-0.007-1.467,0.644-1.466,1.445c0.001,0.8,0.668,1.463,1.463,1.459   C27.887,42.165,28.675,41.519,28.559,40.688z"
   id="path14" />
	<path
   fill-rule="evenodd"
   clip-rule="evenodd"
   fill="#212121"
   d="M24.266,46.654c-0.168-0.078-0.35-0.062-0.207-0.32   c0.179-0.326,0.048-0.746,0.061-1.125c0.011-0.35,0.002-0.7,0.004-1.051c0.002-0.235,0.115-0.383,0.354-0.401   c0.263-0.021,0.463,0.132,0.43,0.372c-0.101,0.731,0.407,0.761,0.892,0.841c0.263,0.044,0.477,0.242,0.773,0.211   c0.162-0.017,0.251,0.206,0.257,0.318c0.026,0.587,0.013,1.177-0.054,1.766c-0.159-0.473-0.074-0.957-0.112-1.434   c-0.015-0.19,0.128-0.503-0.207-0.518c-0.338-0.015-0.216,0.3-0.252,0.493c-0.008,0.04-0.045,0.075-0.13,0.212   c-0.014-0.252-0.031-0.403-0.029-0.555c0.004-0.191-0.048-0.351-0.262-0.342c-0.186,0.009-0.294,0.135-0.282,0.34   c0.007,0.125,0.001,0.251-0.102,0.381c0-0.22,0.008-0.44-0.003-0.66c-0.007-0.159-0.109-0.243-0.267-0.229   c-0.136,0.013-0.201,0.106-0.202,0.241c-0.002,0.238-0.001,0.477-0.001,0.716c-0.058,0-0.116,0-0.176,0   c0-0.513,0.004-1.024-0.001-1.536c-0.002-0.19,0.062-0.457-0.23-0.463c-0.283-0.005-0.253,0.252-0.253,0.451   C24.265,45.126,24.266,45.891,24.266,46.654z"
   id="path16" />
	<path
   fill-rule="evenodd"
   clip-rule="evenodd"
   fill="#212121"
   d="M24.338,43.257c0.98-0.08,1.418,0.47,1.052,1.291   C25.266,43.487,25.018,43.189,24.338,43.257z"
   id="path18" />
	<path
   fill-rule="evenodd"
   clip-rule="evenodd"
   fill="#212121"
   d="M23.279,43.164c-0.334,0.65-0.357,1.289,0.061,1.957   C22.731,44.744,22.708,43.795,23.279,43.164z"
   id="path20" />
	<path
   fill-rule="evenodd"
   clip-rule="evenodd"
   fill="#212121"
   d="M23.874,44.875c-0.498-0.554-0.466-0.973,0.016-1.422   c-0.08,0.09-0.204,0.122-0.176,0.314c0.024,0.161-0.085,0.35-0.04,0.53C23.713,44.455,23.779,44.606,23.874,44.875z"
   id="path22" />
	<path
   fill-rule="evenodd"
   clip-rule="evenodd"
   fill="#212121"
   d="M23.535,42.917c0.463-0.463,0.979-0.526,1.536-0.248   C24.563,42.627,24.034,42.628,23.535,42.917z"
   id="path24" />
	<path
   fill-rule="evenodd"
   clip-rule="evenodd"
   fill="#212121"
   d="M24.366,47.774c0.479,0.405,1.014,0.611,1.658,0.406   c-0.527,0.387-1.187,0.247-1.741-0.33C24.311,47.825,24.338,47.8,24.366,47.774z"
   id="path26" />
	<path
   fill-rule="evenodd"
   clip-rule="evenodd"
   fill="#212121"
   d="M24.283,47.851c-0.077-0.086-0.214-0.138-0.177-0.301   c0.162-0.004,0.201,0.121,0.26,0.225C24.338,47.8,24.311,47.825,24.283,47.851z"
   id="path28" />
	<polygon
   fill-rule="evenodd"
   clip-rule="evenodd"
   fill="#212121"
   points="25.413,42.796 25.404,42.75 25.385,42.792  "
   id="polygon30" />
	<polygon
   fill-rule="evenodd"
   clip-rule="evenodd"
   fill="#212121"
   points="23.489,45.315 23.509,45.276 23.485,45.272  "
   id="polygon32" />
	<path
   fill-rule="evenodd"
   clip-rule="evenodd"
   fill="#FCFCFC"
   d="M13.471,29.712c-0.371-0.385-0.548-0.847-0.703-1.322   c-0.045-0.137-0.031-0.232,0.089-0.286c0.088-0.039,0.144,0.06,0.165,0.125C13.176,28.722,13.322,29.218,13.471,29.712z"
   id="path34" />
	<path
   fill-rule="evenodd"
   clip-rule="evenodd"
   fill="#FCFCFC"
   d="M11.8,17.767c-0.209,0.553-0.593,1.004-0.801,1.548   C11.025,18.677,11.366,18.192,11.8,17.767z"
   id="path36" />
	<path
   fill-rule="evenodd"
   clip-rule="evenodd"
   fill="#FCFCFC"
   d="M13.271,12.215c0.593-0.337,1.218-0.535,1.908-0.443   C14.529,11.861,13.911,12.076,13.271,12.215z"
   id="path38" />
	<path
   fill-rule="evenodd"
   clip-rule="evenodd"
   fill="#FCFCFC"
   d="M10.54,21.243c0.029-0.362,0.059-0.724,0.088-1.086   c0.051,0,0.101-0.001,0.151-0.002c0.153,0.364-0.133,0.742-0.081,1.107C10.646,21.256,10.593,21.249,10.54,21.243z"
   id="path40" />
	<path
   fill-rule="evenodd"
   clip-rule="evenodd"
   fill="#C48500"
   d="M10.54,21.243c0.053,0.006,0.105,0.013,0.158,0.02   c0.025,0.145,0.03,0.285-0.044,0.457C10.48,21.577,10.526,21.405,10.54,21.243z"
   id="path42" />
	<path
   fill-rule="evenodd"
   clip-rule="evenodd"
   fill="#FCFCFC"
   d="M40.929,17.288c-0.241-1.082-0.818-1.986-1.471-2.854   C40.399,14.892,41.085,16.228,40.929,17.288z"
   id="path44" />
	<path
   fill-rule="evenodd"
   clip-rule="evenodd"
   fill="#FCFCFC"
   d="M40.466,20.428c-0.053,0.618-0.503,1.172-1,1.302   C39.844,21.342,40.129,20.937,40.466,20.428z"
   id="path46" />
	<path
   fill-rule="evenodd"
   clip-rule="evenodd"
   fill="#FCFCFC"
   d="M40.881,19.82c-0.143-0.463,0.237-0.812,0.308-1.228   C41.242,19.037,41.08,19.433,40.881,19.82z"
   id="path48" />
	<path
   fill-rule="evenodd"
   clip-rule="evenodd"
   fill="#FCFCFC"
   d="M22.003,40.641c0.345-0.015,0.651-0.325,0.613-0.662   c-0.042-0.38-0.261-0.621-0.661-0.602c-0.391,0.02-0.607,0.254-0.608,0.649C21.346,40.373,21.66,40.654,22.003,40.641z"
   id="path50" />
	<path
   fill-rule="evenodd"
   clip-rule="evenodd"
   fill="#212121"
   d="M20.058,12.596c0-0.584,0.012-1.167-0.004-1.75   c-0.007-0.24,0.068-0.319,0.309-0.317c1.184,0.009,2.367,0.008,3.55,0.001c0.226-0.002,0.326,0.047,0.323,0.303   c-0.013,1.184-0.013,2.367,0,3.551c0.003,0.244-0.074,0.319-0.31,0.317c-1.184-0.008-2.367-0.01-3.551,0.002   c-0.276,0.003-0.329-0.108-0.322-0.356C20.07,13.763,20.059,13.179,20.058,12.596z"
   id="path52" />
	<path
   fill-rule="evenodd"
   clip-rule="evenodd"
   fill="#212121"
   d="M27.919,11.367c-0.584,0-1.168-0.018-1.751,0.006   c-0.361,0.015-0.3-0.208-0.299-0.42c0.002-0.21-0.066-0.433,0.297-0.427c1.201,0.017,2.403,0.014,3.604,0.002   c0.383-0.004,0.257,0.259,0.269,0.448c0.013,0.192,0.066,0.405-0.268,0.396C29.154,11.354,28.537,11.367,27.919,11.367z"
   id="path54" />
	<path
   fill-rule="evenodd"
   clip-rule="evenodd"
   fill="#212121"
   d="M27.956,13.03c-0.566,0-1.134-0.022-1.698,0.009   c-0.358,0.02-0.399-0.134-0.397-0.436c0.001-0.283,0.039-0.414,0.373-0.407c1.148,0.021,2.297,0.021,3.446,0   c0.335-0.007,0.369,0.126,0.372,0.407c0.002,0.303-0.04,0.455-0.397,0.436C29.09,13.008,28.521,13.03,27.956,13.03z"
   id="path56" />
	<path
   fill-rule="evenodd"
   clip-rule="evenodd"
   fill="#212121"
   d="M27.148,14.697c-0.266,0-0.534-0.028-0.795,0.006   c-0.452,0.061-0.519-0.157-0.493-0.538c0.015-0.233,0.067-0.324,0.31-0.32c0.63,0.012,1.263,0.023,1.892-0.002   c0.408-0.018,0.289,0.253,0.308,0.463c0.021,0.238,0.007,0.426-0.324,0.396C27.748,14.677,27.447,14.697,27.148,14.697z"
   id="path58" />
	<path
   fill-rule="evenodd"
   clip-rule="evenodd"
   fill="#212121"
   d="M22.003,40.641c-0.343,0.014-0.657-0.268-0.656-0.614   c0.001-0.396,0.218-0.63,0.608-0.649c0.4-0.02,0.619,0.222,0.661,0.602C22.654,40.315,22.348,40.626,22.003,40.641z"
   id="path60" />
	<path
   fill-rule="evenodd"
   clip-rule="evenodd"
   fill="#212121"
   d="M27.107,39.486c0.455-0.076,0.63,0.192,0.62,0.565   c-0.01,0.38-0.269,0.614-0.651,0.604s-0.619-0.257-0.609-0.642C26.477,39.623,26.687,39.398,27.107,39.486z"
   id="path62" />
</g>
<path
   fill-rule="evenodd"
   clip-rule="evenodd"
   fill="#C48500"
   d="M48.273,21.862c0,2.099,0,4.167,0,6.277  c-15.509,0-31.006,0-46.547,0c0-2.086,0-4.168,0-6.277C17.23,21.862,32.717,21.862,48.273,21.862z"
   id="path66" />
<text
   font-size="3"
   id="text68"
   x="2.0478084"
   y="26.102598"
   style="font-size:3.1120832px;font-family:Gilroy-ExtraBold;stroke-width:1">ACTIVE KNOWLEDGE MAKING</text>

</svg>