<?xml version="1.0" encoding="UTF-8" standalone="no"?>
<!-- Generator: Adobe Illustrator 16.0.0, SVG Export Plug-In . SVG Version: 6.00 Build 0)  -->

<svg
   xmlns:dc="http://purl.org/dc/elements/1.1/"
   xmlns:cc="http://creativecommons.org/ns#"
   xmlns:rdf="http://www.w3.org/1999/02/22-rdf-syntax-ns#"
   xmlns:svg="http://www.w3.org/2000/svg"
   xmlns="http://www.w3.org/2000/svg"
   xmlns:sodipodi="http://sodipodi.sourceforge.net/DTD/sodipodi-0.dtd"
   xmlns:inkscape="http://www.inkscape.org/namespaces/inkscape"
   version="1.0"
   id="Layer_1"
   x="0px"
   y="0px"
   width="50px"
   height="50px"
   viewBox="0 0 50 50"
   enable-background="new 0 0 50 50"
   xml:space="preserve"
   sodipodi:docname="Sada_logo copy-03.svg"
   inkscape:version="0.92.3 (2405546, 2018-03-11)"><metadata
   id="metadata143"><rdf:RDF><cc:Work
       rdf:about=""><dc:format>image/svg+xml</dc:format><dc:type
         rdf:resource="http://purl.org/dc/dcmitype/StillImage" /></cc:Work></rdf:RDF></metadata><defs
   id="defs141" /><sodipodi:namedview
   pagecolor="#ffffff"
   bordercolor="#666666"
   borderopacity="1"
   objecttolerance="10"
   gridtolerance="10"
   guidetolerance="10"
   inkscape:pageopacity="0"
   inkscape:pageshadow="2"
   inkscape:window-width="1839"
   inkscape:window-height="1025"
   id="namedview139"
   showgrid="false"
   inkscape:zoom="9.44"
   inkscape:cx="29.420047"
   inkscape:cy="22.429405"
   inkscape:window-x="81"
   inkscape:window-y="27"
   inkscape:window-maximized="1"
   inkscape:current-layer="g136" />
<g
   id="g136">
	<g
   id="g130">
		<path
   fill-rule="evenodd"
   clip-rule="evenodd"
   fill="#0D0D0D"
   d="M24.988,48.963C11.75,48.955,1.023,38.213,1.037,24.977    C1.049,11.739,11.803,1.014,25.035,1.037C38.277,1.06,48.988,11.81,48.963,25.049C48.938,38.266,38.205,48.971,24.988,48.963z     M9.844,7.108C9.555,7.304,9.289,7.526,9.064,7.795C8.93,7.862,8.828,7.964,8.754,8.094C8.633,8.2,8.502,8.3,8.391,8.416    c-5.711,5.936-7.93,13.002-6.416,21.07C4.385,42.33,16.9,50.602,29.719,47.996c14.266-2.9,22.5-18.115,17.113-31.633    c-1.225-3.078-2.971-5.814-5.424-8.072c-0.119-0.268-0.361-0.416-0.578-0.59c-0.199-0.229-0.4-0.455-0.691-0.575    c-0.027-0.012-0.059-0.02-0.09-0.022c-0.195-0.213-0.354-0.465-0.623-0.599C39.15,6.296,38.875,6.088,38.6,5.88    c-0.387-0.267-0.762-0.553-1.164-0.797C31.75,1.612,25.654,0.696,19.199,2.25c-2.744,0.66-5.287,1.814-7.58,3.485    c-0.301,0.121-0.525,0.351-0.768,0.553c-0.295,0.152-0.525,0.383-0.764,0.606C9.984,6.94,9.896,7.003,9.844,7.108z"
   id="path2" />
		<path
   fill-rule="evenodd"
   clip-rule="evenodd"
   fill="#5DBBE5"
   d="M40.049,7.104c0.031,0.003,0.062,0.011,0.09,0.022    c0.006,0.225,0.012,0.449,0.016,0.674c0,3.071,0,6.143,0,9.214c-0.043,0.322,0.127,0.799-0.504,0.698    c-1.012-0.007-2.023-0.013-3.037-0.02c-0.029-0.199,0.094-0.285,0.25-0.368c0.488-0.259,1.02-0.304,1.557-0.311    c0.703-0.01,1.031-0.316,1.033-0.998c0.004-2.412,0.004-4.824,0-7.236c-0.002-0.638-0.328-0.975-0.955-0.976    c-2.43-0.006-4.857-0.006-7.285-0.001c-0.615,0.001-0.973,0.358-0.965,0.977c0.006,0.346-0.018,0.691-0.121,1.01    c-0.096,0.295-0.104,0.704-0.555,0.756c-0.008-0.197-0.016-0.395-0.023-0.593c-0.004-0.652-0.006-1.305-0.008-1.957    c0.043-0.862,0.043-0.862,0.701-0.895c3.07,0,6.143,0,9.213,0C39.654,7.102,39.852,7.103,40.049,7.104z"
   id="path4" />
		<path
   fill-rule="evenodd"
   clip-rule="evenodd"
   fill="#444444"
   d="M23.686,37.086c-0.035,0.002-0.068,0.004-0.104,0.006    c-0.062-0.08-0.123-0.158-0.186-0.236c-0.035-0.021-0.07-0.045-0.104-0.066c0.031-0.24,0.229-0.346,0.395-0.477l0.049,0.004    l0.047-0.004c0.131,0.27,0.377,0.148,0.58,0.174c1.867,0.137,3.66-0.189,5.395-0.875c0.125-0.049,0.295-0.072,0.289-0.273    c0.125,0.002,0.25,0.004,0.377,0.006c0.145,0.438,0,0.584-0.412,0.701c-0.523,0.146-1.021,0.387-1.557,0.521    c-1.5,0.377-3.014,0.559-4.559,0.367C23.76,36.891,23.699,36.957,23.686,37.086z"
   id="path6" />
		<path
   fill-rule="evenodd"
   clip-rule="evenodd"
   fill="#444444"
   d="M26.623,41.213c0.768,0.818,0.873,1.914,0.262,2.859    c-0.268,0.412-0.5,0.836-0.613,1.318c-0.068,0.293-0.072,0.578,0.119,0.834c-0.047-0.002-0.094-0.004-0.141-0.006l-0.037-0.01    c-0.707-0.254-1.439-0.039-2.154-0.111c-0.105-0.01-0.195,0.004-0.24,0.115c-0.051,0.004-0.102,0.01-0.152,0.016    c-0.039-0.043-0.078-0.088-0.117-0.131c0.236-0.266,0.105-0.57,0.09-0.863c0.039,0,0.078-0.002,0.117-0.002    c0.205,0.709,0.205,0.709,0.955,0.672c0.031,0,0.062-0.01,0.094-0.014c0.082,0.002,0.164,0.004,0.246,0.006    c0.129,0.006,0.26,0.002,0.389,0.018c0.389,0.049,0.621-0.021,0.637-0.51c0.014-0.453,0.246-0.867,0.498-1.252    c0.695-1.061,0.686-1.836-0.025-2.875C26.574,41.256,26.598,41.234,26.623,41.213z"
   id="path8" />
		<path
   fill-rule="evenodd"
   clip-rule="evenodd"
   fill="#3C647E"
   d="M26.25,46.219c0.047,0.002,0.094,0.004,0.141,0.006    c-0.094,0.379-0.006,0.836-0.449,1.07c-0.039,0.021-0.107,0.047-0.111,0.076c-0.064,0.555-0.469,0.529-0.871,0.527    c-0.418-0.002-0.643-0.225-0.947-0.51c-0.316-0.295-0.273-0.674-0.514-0.943c-0.084-0.092-0.072-0.246,0.051-0.348    c0.039,0.043,0.078,0.088,0.117,0.131c0.039,0.205,0.15,0.289,0.371,0.283c0.615-0.014,1.232-0.01,1.848,0    C26.1,46.514,26.227,46.439,26.25,46.219z M24.9,47.098c0-0.002,0-0.004,0-0.006c0.307,0,0.615,0.004,0.922-0.004    c0.131-0.002,0.211-0.08,0.207-0.217c-0.002-0.121-0.088-0.17-0.193-0.172c-0.584-0.002-1.166-0.004-1.75,0.006    c-0.127,0.002-0.203,0.09-0.203,0.225c0.002,0.166,0.125,0.166,0.238,0.166C24.381,47.1,24.641,47.098,24.9,47.098z     M24.938,47.682c0-0.004,0-0.006,0-0.01c0.129,0,0.264,0.02,0.389-0.004c0.148-0.029,0.291-0.123,0.262-0.293    c-0.025-0.145-0.184-0.092-0.287-0.096c-0.211-0.008-0.424-0.018-0.633,0.004c-0.135,0.014-0.381-0.117-0.379,0.143    c0,0.211,0.213,0.256,0.404,0.256C24.775,47.68,24.855,47.682,24.938,47.682z"
   id="path10" />
		<path
   fill-rule="evenodd"
   clip-rule="evenodd"
   fill="#3C647E"
   d="M23.756,45.232c-0.039,0-0.078,0.002-0.117,0.002    c-0.15-0.447-0.373-0.852-0.637-1.246c-0.582-0.865-0.502-1.92,0.158-2.711c0.664-0.791,1.65-1.051,2.578-0.676    c0.002,0.039,0.004,0.078,0.008,0.115c-0.273-0.027-0.553,0.02-0.818-0.08c-0.439-0.037-0.846,0.029-1.158,0.381v-0.002    c-0.445,0.182-0.691,0.521-0.785,0.982l0,0c-0.262,0.285-0.182,0.631-0.17,0.963c-0.01,0.424,0.193,0.764,0.426,1.094    C23.49,44.412,23.721,44.779,23.756,45.232z"
   id="path12" />
		<path
   fill-rule="evenodd"
   clip-rule="evenodd"
   fill="#3C647E"
   d="M38.342,20.328c-0.41-0.074-0.66-0.501-1.102-0.505    c-0.012-0.081-0.023-0.162-0.035-0.243c0.01-0.021,0.016-0.043,0.016-0.065c0.082,0.038,0.164,0.075,0.246,0.113    C37.725,19.901,38.201,19.905,38.342,20.328z"
   id="path14" />
		<path
   fill-rule="evenodd"
   clip-rule="evenodd"
   fill="#3C647E"
   d="M12.953,19.822c-0.426-0.018-0.703,0.381-1.117,0.393    c0.107-0.342,0.488-0.293,0.697-0.489c0.088-0.061,0.176-0.12,0.264-0.181c0.059,0.001,0.117,0.001,0.176,0.002    C12.967,19.639,12.959,19.73,12.953,19.822z"
   id="path16" />
		<path
   fill-rule="evenodd"
   clip-rule="evenodd"
   fill="#3C647E"
   d="M24.895,40c0-0.318,0-0.637,0-0.953    C25.076,39.373,25.066,39.689,24.895,40z"
   id="path18" />
		<path
   fill-rule="evenodd"
   clip-rule="evenodd"
   fill="#3C647E"
   d="M23.371,40.221c-0.135-0.264-0.271-0.527-0.408-0.793    c0.045-0.025,0.09-0.053,0.135-0.08c0.146,0.262,0.312,0.512,0.387,0.818C23.447,40.184,23.408,40.203,23.371,40.221z"
   id="path20" />
		<path
   fill-rule="evenodd"
   clip-rule="evenodd"
   fill="#3C647E"
   d="M26.914,39.242c-0.082,0.441-0.26,0.703-0.484,0.945    C26.504,39.875,26.602,39.574,26.914,39.242z"
   id="path22" />
		<path
   fill-rule="evenodd"
   clip-rule="evenodd"
   fill="#3C647E"
   d="M21.812,40.729c0-0.039,0-0.078,0-0.119    c0.279,0.02,0.451,0.217,0.635,0.408C22.188,41.035,22.025,40.82,21.812,40.729z"
   id="path24" />
		<path
   fill-rule="evenodd"
   clip-rule="evenodd"
   fill="#3C647E"
   d="M27.475,41.096c0.088-0.305,0.33-0.383,0.525-0.529    c0.029,0.041,0.057,0.082,0.086,0.123C27.881,40.824,27.678,40.959,27.475,41.096z"
   id="path26" />
		<path
   fill-rule="evenodd"
   clip-rule="evenodd"
   fill="#3C647E"
   d="M24.002,37.383c-0.014-0.062-0.111-0.109-0.031-0.188    c0.125,0.037,0.225,0.098,0.236,0.246C24.139,37.422,24.07,37.402,24.002,37.383z"
   id="path28" />
		<path
   fill-rule="evenodd"
   clip-rule="evenodd"
   fill="#444444"
   d="M26.262,40.889c0.113,0.045,0.215,0.105,0.264,0.225    c-0.021,0.025-0.043,0.051-0.064,0.076c-0.088-0.08-0.176-0.158-0.264-0.238C26.219,40.932,26.24,40.91,26.262,40.889z"
   id="path30" />
		<path
   fill-rule="evenodd"
   clip-rule="evenodd"
   fill="#3C647E"
   d="M23.686,37.086c0.014-0.129,0.074-0.195,0.211-0.152    c-0.006,0.057-0.012,0.113-0.02,0.168C23.805,37.207,23.748,37.1,23.686,37.086z"
   id="path32" />
		<path
   fill-rule="evenodd"
   clip-rule="evenodd"
   fill="#444444"
   d="M25.746,40.717c-0.004-0.037-0.006-0.076-0.008-0.115    c0.07,0.033,0.141,0.068,0.213,0.102c-0.02,0.025-0.039,0.051-0.059,0.078C25.844,40.76,25.795,40.738,25.746,40.717z"
   id="path34" />
		<path
   fill-rule="evenodd"
   clip-rule="evenodd"
   fill="#444444"
   d="M25.951,40.703c0.076,0.016,0.152,0.027,0.188,0.111    c-0.021,0.023-0.041,0.047-0.061,0.072c-0.062-0.035-0.123-0.07-0.186-0.105C25.912,40.754,25.932,40.729,25.951,40.703z"
   id="path36" />
		<path
   fill-rule="evenodd"
   clip-rule="evenodd"
   fill="#444444"
   d="M26.525,41.113c0.033,0.033,0.064,0.066,0.098,0.1    c-0.025,0.021-0.049,0.043-0.074,0.064c-0.029-0.029-0.059-0.059-0.088-0.088C26.482,41.164,26.504,41.139,26.525,41.113z"
   id="path38" />
		<path
   fill-rule="evenodd"
   clip-rule="evenodd"
   fill="#3C647E"
   d="M23.977,37.203c-0.098,0.025-0.156,0.016-0.105-0.105    C23.936,37.102,23.973,37.137,23.977,37.203z"
   id="path40" />
		<path
   fill-rule="evenodd"
   clip-rule="evenodd"
   fill="#444444"
   d="M26.139,40.814c0.041,0.025,0.082,0.049,0.123,0.074    c-0.021,0.021-0.043,0.043-0.064,0.062c-0.039-0.021-0.08-0.043-0.119-0.064C26.098,40.861,26.117,40.838,26.139,40.814z"
   id="path42" />
		<path
   fill-rule="evenodd"
   clip-rule="evenodd"
   fill="#444444"
   d="M25.244,11.738c-1.715-0.037-3.369,0.238-4.926,0.989    c-0.195,0.059-0.432,0.188-0.514-0.107c-0.043-0.156,0.045-0.342,0.248-0.416c1.881-0.683,3.809-1.088,5.822-0.963    c0.16,0.011,0.32,0.041,0.482,0.062c0.072,0.039,0.119,0.012,0.148-0.059c0.15,0.001,0.174,0.153,0.27,0.221    c0.002,0.176-0.125,0.269-0.236,0.372c-0.109,0.071-0.219,0.143-0.328,0.214c-0.062-0.012-0.125-0.024-0.188-0.036    c-0.006-0.066,0.158-0.178-0.049-0.189c-0.145-0.009-0.289-0.011-0.434-0.016C25.471,11.67,25.35,11.735,25.244,11.738z"
   id="path44" />
		<path
   fill-rule="evenodd"
   clip-rule="evenodd"
   fill="#3C647E"
   d="M26.506,11.244c-0.029,0.07-0.076,0.098-0.148,0.059    c0.035-0.18-0.205-0.278-0.137-0.468c0.057,0.038,0.115,0.076,0.174,0.115C26.432,11.048,26.469,11.146,26.506,11.244z"
   id="path46" />
		<path
   fill-rule="evenodd"
   clip-rule="evenodd"
   fill="#3C647E"
   d="M26.197,10.7c0.01,0.048,0.02,0.096,0.029,0.143    c-0.117,0.077-0.145-0.041-0.15-0.096C26.061,10.632,26.15,10.703,26.197,10.7z"
   id="path48" />
		<path
   fill-rule="evenodd"
   clip-rule="evenodd"
   fill="#5DBBE5"
   d="M9.961,7.117c0.357-0.007,0.715-0.013,1.072-0.02    c2.811,0,5.621,0,8.432,0c0.262,0,0.523,0,0.783,0c0.215-0.009,0.318,0.094,0.311,0.31c0,0.981,0,1.962-0.002,2.943    c-0.041,0.129,0.037,0.294-0.115,0.391c-0.129-0.15-0.301-0.193-0.488-0.198c-0.779-0.303-1.668,0.137-2.076,0.687    c-0.492,0.664-0.498,1.655-0.01,2.342c0.514,0.721,1.25,0.969,2.086,0.7c0.188-0.006,0.359-0.049,0.488-0.198    c0.172,0.132,0.066,0.327,0.113,0.487c0,0.948,0,1.897,0,2.847c-0.014,0.14-0.002,0.297-0.209,0.308    c-0.26,0-0.521,0.001-0.783,0.001c-0.619-0.003-1.24-0.006-1.859-0.01c-0.23-0.007-0.461-0.015-0.689-0.022    c0.033-0.273,0.246-0.378,0.463-0.448c0.416-0.137,0.848-0.215,1.289-0.222c0.611-0.01,1.01-0.287,1.084-0.764    c0.109-0.695-0.166-1.215-0.783-1.369c-0.311-0.077-0.588-0.205-0.85-0.36c-0.807-0.479-1.215-1.196-1.205-2.142    c0.01-0.926,0.416-1.63,1.211-2.088c0.307-0.177,0.662-0.268,0.99-0.409c0.525-0.227,0.768-0.769,0.631-1.381    c-0.107-0.471-0.438-0.699-1.029-0.699c-2.383-0.002-4.768-0.003-7.15,0c-0.773,0.002-1.02,0.25-1.02,1.032    c-0.004,2.383-0.004,4.767,0,7.149c0,0.683,0.34,1.029,1.016,1.026c0.512-0.002,1.002,0.084,1.475,0.274    c0.178,0.071,0.385,0.136,0.35,0.399c-0.197,0.008-0.395,0.016-0.592,0.023c-0.621,0.003-1.24,0.006-1.859,0.01    c-0.262,0-0.523,0-0.785,0c-0.215,0.009-0.318-0.095-0.309-0.31c0-3.334,0-6.667,0-10C9.947,7.311,9.953,7.214,9.961,7.117z"
   id="path50" />
		<path
   fill-rule="evenodd"
   clip-rule="evenodd"
   fill="#5DBBE5"
   d="M30.535,17.716c-0.262,0-0.523-0.001-0.785-0.001    c-0.129-0.018-0.24-0.063-0.281-0.204c0.139-0.111,0.088-0.269,0.088-0.408c0.002-0.747-0.004-1.494-0.008-2.241    c0.008-0.197,0.016-0.395,0.023-0.593c0.125,0.007,0.201,0.078,0.271,0.177c0.27,0.376,0.303,0.803,0.305,1.245    c0.002,0.977,0.217,1.202,1.176,1.332c0.256,0.035,0.516,0.055,0.764,0.104c0.381,0.074,0.816,0.105,0.996,0.558    c-0.197,0.008-0.395,0.016-0.592,0.023C31.84,17.71,31.188,17.713,30.535,17.716z"
   id="path52" />
		<path
   fill-rule="evenodd"
   clip-rule="evenodd"
   fill="#56B5DF"
   d="M33.084,17.684c-0.18-0.452-0.615-0.483-0.996-0.558    c-0.248-0.049-0.508-0.068-0.764-0.104c-0.959-0.13-1.174-0.355-1.176-1.332c-0.002-0.442-0.035-0.869-0.305-1.245    c-0.07-0.099-0.146-0.17-0.271-0.177c-0.016-0.116-0.068-0.194-0.199-0.188c-0.326-0.274-0.754-0.282-1.129-0.425    c-0.844-0.323-1.209-1.046-0.873-1.763c0.244-0.522,0.732-0.719,1.246-0.845c0.273-0.066,0.529-0.146,0.754-0.315    c0.133,0.007,0.186-0.07,0.201-0.188c0.451-0.052,0.459-0.461,0.555-0.756c0.104-0.318,0.127-0.664,0.121-1.01    c-0.008-0.618,0.35-0.976,0.965-0.977c2.428-0.005,4.855-0.005,7.285,0.001c0.627,0.001,0.953,0.338,0.955,0.976    c0.004,2.412,0.004,4.824,0,7.236c-0.002,0.682-0.33,0.988-1.033,0.998c-0.537,0.007-1.068,0.052-1.557,0.311    c-0.156,0.083-0.279,0.169-0.25,0.368c-0.113,0.015-0.189,0.063-0.168,0.196c-0.23,0.014-0.271,0.194-0.328,0.366    c-0.09,0.276-0.178,0.556-0.281,0.828c-0.305,0.804-1.137,0.977-1.732,0.373c-0.252-0.255-0.32-0.586-0.439-0.901    c-0.09-0.239-0.031-0.58-0.393-0.661C33.287,17.755,33.207,17.7,33.084,17.684z M34.209,13.158    c-0.701,0.303-1.182,0.792-1.354,1.558c-0.127,0.556,0.053,0.824,0.609,0.828c0.93,0.007,1.861,0.007,2.791,0    c0.512-0.004,0.701-0.253,0.611-0.754c-0.145-0.808-0.66-1.311-1.371-1.652c0.594-0.634,0.646-1.227,0.17-1.735    c-0.422-0.45-1.086-0.487-1.537-0.088C33.568,11.811,33.59,12.36,34.209,13.158z"
   id="path54" />
		<path
   fill-rule="evenodd"
   clip-rule="evenodd"
   fill="#5DBBE5"
   d="M29.066,10.494c0.102,0.079,0.203,0.159,0.305,0.238    c-0.225,0.17-0.48,0.249-0.754,0.315c-0.514,0.126-1.002,0.322-1.246,0.845c-0.336,0.717,0.029,1.439,0.873,1.763    c0.375,0.143,0.803,0.15,1.127,0.425c-0.102,0.081-0.205,0.162-0.309,0.243c-1.439,0.269-2.26-0.592-2.486-1.419    c-0.096-0.355-0.035-0.711-0.039-1.067c0.113-0.104,0.24-0.196,0.238-0.372c0.271-0.613,0.807-0.864,1.408-1.022    C28.479,10.459,28.771,10.477,29.066,10.494z"
   id="path56" />
		<path
   fill-rule="evenodd"
   clip-rule="evenodd"
   fill="#444444"
   d="M36.59,19.836c0.293,0.049,0.246-0.282,0.414-0.373    c0.068,0.039,0.135,0.078,0.201,0.117c0.012,0.081,0.023,0.162,0.035,0.243c0.094,0.271,0.189,0.542,0.283,0.813    c0.037,0.139,0.076,0.276,0.113,0.414c0.02,0.059,0.039,0.117,0.059,0.176c0.002,0.098,0.002,0.196,0.004,0.294    c-0.164-0.001-0.326-0.003-0.488-0.005c-0.016-0.067-0.033-0.135-0.049-0.202c-0.092-0.428-0.174-0.859-0.379-1.26    c-0.258,0.204-0.293,0.569-0.611,0.713c0.051-0.186,0.162-0.337,0.234-0.505c0.061-0.143,0.287-0.252,0.119-0.455l-0.006,0.009    l0.031,0.021L36.59,19.836z"
   id="path58" />
		<path
   fill-rule="evenodd"
   clip-rule="evenodd"
   fill="#444444"
   d="M12.953,19.822c0.006-0.092,0.014-0.184,0.02-0.275    c0.039-0.036,0.078-0.072,0.117-0.107c0.098-0.023,0.193-0.046,0.289-0.068c0.121,0.219,0.184,0.471,0.365,0.657    c-0.059,0.324,0.318,0.527,0.24,0.986c-0.209-0.403-0.365-0.707-0.547-1.056c-0.236,0.533-0.357,1.041-0.453,1.557    c-0.191,0.001-0.383,0.002-0.574,0.003c0.012-0.104,0.133-0.172,0.09-0.292c0.02-0.059,0.039-0.117,0.059-0.175    c0.035-0.13,0.07-0.26,0.105-0.39C12.76,20.383,12.857,20.103,12.953,19.822z"
   id="path60" />
		<path
   fill-rule="evenodd"
   clip-rule="evenodd"
   fill="#3C647E"
   d="M23.871,36.127c0.041-0.078,0.082-0.156,0.123-0.234    c0.047,0.002,0.148-0.055,0.121,0.045C24.09,36.039,24.035,36.172,23.871,36.127z"
   id="path62" />
		<path
   fill-rule="evenodd"
   clip-rule="evenodd"
   fill="#3C647E"
   d="M23.682,36.133c0.064-0.004,0.131-0.008,0.195-0.012    c0.082,0.119-0.025,0.145-0.094,0.191l-0.047,0.004l-0.049-0.004c-0.004-0.033-0.012-0.064-0.023-0.094    C23.676,36.189,23.682,36.162,23.682,36.133z"
   id="path64" />
		<path
   fill-rule="evenodd"
   clip-rule="evenodd"
   fill="#FBD05F"
   d="M26.078,40.887c0.039,0.021,0.08,0.043,0.119,0.064    c0.088,0.08,0.176,0.158,0.264,0.238c0.029,0.029,0.059,0.059,0.088,0.088c0.711,1.039,0.721,1.814,0.025,2.875    c-0.252,0.385-0.484,0.799-0.498,1.252c-0.016,0.488-0.248,0.559-0.637,0.51c-0.129-0.016-0.26-0.012-0.389-0.018    c0.279-0.748,0.162-1.637,0.824-2.26c-0.633,0.111-1.248,0.055-2.014,0.016c0.34,0.172,0.514,0.312,0.566,0.576    c0.109,0.557,0.25,1.107,0.377,1.662c-0.031,0.004-0.062,0.014-0.094,0.014c-0.75,0.037-0.75,0.037-0.955-0.672    c-0.035-0.453-0.266-0.82-0.516-1.178c-0.232-0.33-0.436-0.67-0.426-1.094c0.096-0.314,0.217-0.623,0.17-0.963l0,0    c0.264-0.061,0.215-0.445,0.5-0.482c0.043,0.197-0.145,0.312-0.172,0.484c-0.039,0.258,0.041,0.42,0.328,0.393    c0.32-0.029,0.699-0.5,0.635-0.807c-0.104-0.488-0.422-0.139-0.648-0.152c-0.016-0.002-0.031-0.01-0.047-0.016    c-0.023-0.174,0.252-0.209,0.189-0.402v0.002c0.408-0.062,0.775-0.246,1.158-0.381c0.266,0.1,0.545,0.053,0.818,0.08    c0.049,0.021,0.098,0.043,0.146,0.064C25.955,40.816,26.016,40.852,26.078,40.887z"
   id="path66" />
		<path
   fill-rule="evenodd"
   clip-rule="evenodd"
   fill="#F5F5F5"
   d="M24.805,45.891c-0.127-0.555-0.268-1.105-0.377-1.662    c-0.053-0.264-0.227-0.404-0.566-0.576c0.766,0.039,1.381,0.096,2.014-0.016c-0.662,0.623-0.545,1.512-0.824,2.26    C24.969,45.895,24.887,45.893,24.805,45.891z M24.896,45.396c0.029,0.002,0.059,0.002,0.088,0.002    c0.102-0.412,0.211-0.824,0.305-1.238c0.064-0.281-0.195-0.346-0.348-0.354c-0.164-0.01-0.404,0.072-0.344,0.348    C24.688,44.57,24.795,44.982,24.896,45.396z"
   id="path68" />
		<path
   fill-rule="evenodd"
   clip-rule="evenodd"
   fill="#5DBBE5"
   d="M26.25,46.219c-0.023,0.221-0.15,0.295-0.365,0.293    c-0.615-0.01-1.232-0.014-1.848,0c-0.221,0.006-0.332-0.078-0.371-0.283c0.051-0.006,0.102-0.012,0.152-0.016    c0.797-0.002,1.596-0.002,2.395-0.004L26.25,46.219z"
   id="path70" />
		<path
   fill-rule="evenodd"
   clip-rule="evenodd"
   fill="#D5D5D5"
   d="M26.213,46.209c-0.799,0.002-1.598,0.002-2.395,0.004    c0.045-0.111,0.135-0.125,0.24-0.115C24.773,46.17,25.506,45.955,26.213,46.209z"
   id="path72" />
		<path
   fill-rule="evenodd"
   clip-rule="evenodd"
   fill="#5DBBE5"
   d="M24.9,47.098c-0.26,0-0.52,0.002-0.779-0.002    c-0.113,0-0.236,0-0.238-0.166c0-0.135,0.076-0.223,0.203-0.225c0.584-0.01,1.166-0.008,1.75-0.006    c0.105,0.002,0.191,0.051,0.193,0.172c0.004,0.137-0.076,0.215-0.207,0.217c-0.307,0.008-0.615,0.004-0.922,0.004    C24.9,47.094,24.9,47.096,24.9,47.098z"
   id="path74" />
		<path
   fill-rule="evenodd"
   clip-rule="evenodd"
   fill="#5DBBE5"
   d="M24.938,47.682c-0.082,0-0.162-0.002-0.244,0    c-0.191,0-0.404-0.045-0.404-0.256c-0.002-0.26,0.244-0.129,0.379-0.143c0.209-0.021,0.422-0.012,0.633-0.004    c0.104,0.004,0.262-0.049,0.287,0.096c0.029,0.17-0.113,0.264-0.262,0.293c-0.125,0.023-0.26,0.004-0.389,0.004    C24.938,47.676,24.938,47.678,24.938,47.682z"
   id="path76" />
		<path
   fill-rule="evenodd"
   clip-rule="evenodd"
   fill="#EDEDED"
   d="M23.484,41.516c-0.285,0.037-0.236,0.422-0.5,0.482    c0.094-0.461,0.34-0.801,0.785-0.982c0.062,0.193-0.213,0.229-0.189,0.402l0.002-0.002c-0.072-0.006-0.105,0.029-0.1,0.1H23.484z"
   id="path78" />
		<path
   fill-rule="evenodd"
   clip-rule="evenodd"
   fill="#EDEDED"
   d="M24.928,40.637c-0.383,0.135-0.75,0.318-1.158,0.381    C24.082,40.666,24.488,40.6,24.928,40.637z"
   id="path80" />
		<path
   fill-rule="evenodd"
   clip-rule="evenodd"
   fill="#EDEDED"
   d="M22.984,41.998c0.047,0.34-0.074,0.648-0.17,0.963    C22.803,42.629,22.723,42.283,22.984,41.998z"
   id="path82" />
		<path
   fill-rule="evenodd"
   clip-rule="evenodd"
   fill="#56B5DF"
   d="M13.484,17.684c0.035-0.264-0.172-0.328-0.35-0.399    c-0.473-0.19-0.963-0.276-1.475-0.274c-0.676,0.003-1.016-0.344-1.016-1.026c-0.004-2.383-0.004-4.767,0-7.149    c0-0.782,0.246-1.03,1.02-1.032c2.383-0.003,4.768-0.002,7.15,0c0.592,0,0.922,0.229,1.029,0.699    c0.137,0.612-0.105,1.154-0.631,1.381c-0.328,0.142-0.684,0.232-0.99,0.409c-0.795,0.458-1.201,1.162-1.211,2.088    c-0.01,0.945,0.398,1.663,1.205,2.142c0.262,0.155,0.539,0.283,0.85,0.36c0.617,0.154,0.893,0.674,0.783,1.369    c-0.074,0.477-0.473,0.754-1.084,0.764c-0.441,0.007-0.873,0.085-1.289,0.222c-0.217,0.07-0.43,0.175-0.463,0.448    c-0.123,0.016-0.201,0.072-0.188,0.209c-0.32,0.192-0.322,0.539-0.408,0.844c-0.283,1.021-1.049,1.41-1.795,0.896    c-0.324-0.223-0.434-0.592-0.549-0.945c-0.094-0.286-0.096-0.617-0.402-0.795C13.684,17.756,13.607,17.699,13.484,17.684z     M14.615,13.153c-0.721,0.308-1.201,0.818-1.371,1.598c-0.113,0.521,0.076,0.788,0.609,0.793c0.93,0.007,1.859,0.007,2.791,0    c0.537-0.004,0.717-0.253,0.613-0.79c-0.152-0.792-0.664-1.278-1.359-1.612c0.602-0.666,0.646-1.256,0.141-1.766    c-0.434-0.437-1.094-0.451-1.539-0.035C13.947,11.86,13.975,12.374,14.615,13.153z"
   id="path84" />
		<path
   fill-rule="evenodd"
   clip-rule="evenodd"
   fill="#5DBBE5"
   d="M36.029,20.258c-1.234,0.601-1.686,0.533-2.746-0.41    c-0.139-0.278-0.266-0.561-0.307-0.873c0.018-0.261,0.037-0.521,0.055-0.782c0.08-0.1,0.16-0.199,0.24-0.299    c0.361,0.081,0.303,0.422,0.393,0.661c0.119,0.315,0.188,0.646,0.439,0.901c0.596,0.604,1.428,0.431,1.732-0.373    c0.104-0.272,0.191-0.552,0.281-0.828c0.057-0.172,0.098-0.353,0.328-0.366c0.41,0.575,0.273,1.173,0.072,1.772    c0.002,0.052,0.002,0.103,0.002,0.154l0.006-0.009C36.328,19.922,36.146,20.056,36.029,20.258z"
   id="path86" />
		<path
   fill-rule="evenodd"
   clip-rule="evenodd"
   fill="#5DBBE5"
   d="M16.814,19.847c-0.391,0.362-0.76,0.751-1.344,0.792    c-0.508,0.036-0.965-0.069-1.357-0.398c-0.111-0.095-0.217-0.193-0.371-0.212c-0.18-0.187-0.242-0.438-0.363-0.657    c-0.002-0.165-0.006-0.329-0.008-0.493c0.021-0.229,0.043-0.459,0.064-0.688c0.08-0.099,0.158-0.198,0.236-0.297    c0.307,0.178,0.309,0.509,0.402,0.795c0.115,0.354,0.225,0.723,0.549,0.945c0.746,0.514,1.512,0.125,1.795-0.896    c0.086-0.305,0.088-0.651,0.408-0.844c0.17,0.12,0.137,0.351,0.27,0.491c0.008,0.197,0.018,0.395,0.025,0.592    C17.08,19.287,16.953,19.569,16.814,19.847z"
   id="path88" />
		<path
   fill-rule="evenodd"
   clip-rule="evenodd"
   fill="#3C647E"
   d="M34.209,13.158c-0.619-0.798-0.641-1.348-0.08-1.844    c0.451-0.399,1.115-0.362,1.537,0.088c0.477,0.509,0.424,1.102-0.17,1.735c0.711,0.342,1.227,0.845,1.371,1.652    c0.09,0.501-0.1,0.75-0.611,0.754c-0.93,0.007-1.861,0.007-2.791,0c-0.557-0.004-0.736-0.272-0.609-0.828    C33.027,13.95,33.508,13.461,34.209,13.158z"
   id="path90" />
		<path
   fill-rule="evenodd"
   clip-rule="evenodd"
   fill="#E2E2E2"
   d="M36.52,19.815c0-0.052,0-0.103-0.002-0.154    c0.025,0.058,0.049,0.116,0.072,0.175l-0.039,0.001L36.52,19.815z"
   id="path92" />
		<path
   fill-rule="evenodd"
   clip-rule="evenodd"
   fill="#5DBBE5"
   d="M30.047,41.133c-0.162-0.006-0.322-0.014-0.482-0.02v0.002    c0.002-1.205,0.004-2.41,0.004-3.615c0.029-0.002,0.059-0.008,0.086-0.016c0.131,0.037,0.262,0.074,0.393,0.111    c0.541,0.279,1.518-0.039,1.982-0.67c0.479-0.648,0.479-1.545,0-2.193c-0.465-0.631-1.441-0.949-1.982-0.67    c-0.158,0.006-0.312,0.021-0.396,0.184c-0.035-0.027-0.07-0.055-0.105-0.084c0.006-1.205,0.014-2.414,0.02-3.621l-0.002,0.004    c0.16-0.008,0.322-0.014,0.484-0.021c0.881,0,1.764,0.002,2.646,0.002c0.162,0,0.326,0,0.49,0    c0.088,0.045,0.082,0.123,0.072,0.201c-0.141,0.098-0.174,0.24-0.172,0.398c-0.283,0.541,0.039,1.52,0.668,1.982    c0.648,0.479,1.545,0.479,2.193,0c0.629-0.463,0.951-1.439,0.668-1.982c-0.002-0.221-0.092-0.402-0.238-0.561l0.006,0.018    c1.121-0.105,2.246-0.006,3.367-0.057c0.129,0.006,0.258,0.012,0.387,0.02l-0.002-0.002c0.008,0.227,0.016,0.453,0.021,0.678    c0,3.072,0,6.145,0,9.215c-0.008,0.225-0.016,0.449-0.023,0.676c-0.16,0.006-0.32,0.014-0.48,0.021    C36.449,41.133,33.248,41.133,30.047,41.133z M34.758,40.533c1.143,0,2.285,0.008,3.428-0.004    c0.924-0.008,1.346-0.352,1.355-1.229c0.029-2.316,0.033-4.635-0.002-6.951c-0.014-0.967-0.654-1.367-1.594-1.141    c-0.561,0.137-0.686,0.586-0.842,1.035c-0.348,0.998-1.197,1.691-2.104,1.723c-1.014,0.035-1.895-0.531-2.314-1.486    c-0.111-0.252-0.137-0.533-0.287-0.773c-0.342-0.543-0.973-0.725-1.627-0.449c-0.465,0.193-0.656,0.725-0.561,1.309    c0.098,0.596,0.482,0.85,0.99,1.016c1.387,0.453,2.211,2.086,1.32,3.473c-0.354,0.551-0.861,0.865-1.467,1.07    c-0.746,0.252-0.949,0.82-0.875,1.451c0.076,0.672,0.504,0.953,1.299,0.955C32.57,40.535,33.664,40.533,34.758,40.533z"
   id="path94" />
		<path
   fill-rule="evenodd"
   clip-rule="evenodd"
   fill="#5DBBE5"
   d="M20.555,40.533c0,0.164,0,0.328,0.002,0.49    c-0.037,0.037-0.076,0.074-0.113,0.111c-0.26,0.002-0.521,0.002-0.783,0.002c-2.941,0-5.883,0-8.824,0    c-0.26,0-0.521,0-0.783-0.002c-0.037-0.037-0.074-0.074-0.111-0.111c0-3.463,0-6.926,0-10.391    c0.037-0.037,0.074-0.074,0.111-0.111c0.229,0,0.457,0,0.686,0c0.754,0,1.506,0.002,2.258,0.002    c0.225,0.006,0.449,0.01,0.674,0.016c-0.004,0.062-0.01,0.123-0.014,0.186c-0.203,0.15-0.174,0.377-0.193,0.588    c-0.188,0.73,0.09,1.389,0.791,1.881c0.533,0.375,1.457,0.375,1.99,0c0.701-0.492,0.977-1.15,0.791-1.881    c-0.02-0.211,0.008-0.438-0.193-0.588c-0.031-0.143,0.053-0.188,0.17-0.203c0.164,0.002,0.326,0.002,0.49,0.002    c0.85,0,1.699,0,2.549,0c0.162,0.008,0.322,0.014,0.484,0.021l-0.002-0.004c0.006,0.129,0.014,0.26,0.02,0.389    c-0.006,1.043-0.01,2.088-0.016,3.133c-0.326-0.066-0.406-0.338-0.486-0.6c-0.141-0.453-0.229-0.912-0.199-1.393    c0.027-0.434-0.184-0.738-0.604-0.826c-0.297-0.061-0.615-0.047-0.924,0.014c-0.584,0.113-0.652,0.623-0.811,1.057    c-0.326,0.898-0.947,1.477-1.891,1.631c-0.924,0.15-1.674-0.18-2.268-0.926c-0.328-0.412-0.4-0.92-0.631-1.367    c-0.268-0.518-0.799-0.484-1.494-0.398c-0.436,0.057-0.58,0.465-0.582,0.855c-0.012,2.514-0.01,5.025-0.002,7.539    c0.002,0.475,0.293,0.779,0.76,0.781c2.529,0.01,5.059,0.012,7.588-0.002c0.586-0.002,0.84-0.316,0.865-0.898    c0.016-0.387,0.035-0.783,0.123-1.158c0.074-0.312,0.115-0.701,0.555-0.777C20.543,38.574,20.549,39.555,20.555,40.533z"
   id="path96" />
		<path
   fill-rule="evenodd"
   clip-rule="evenodd"
   fill="#444444"
   d="M14.281,30.535c-0.068,0.039-0.139,0.076-0.207,0.115    c-0.084-0.018-0.178-0.008-0.217-0.111c-0.254-0.207-0.584-0.115-0.865-0.221c-0.105-0.113-0.252-0.066-0.379-0.096    c0.004-0.057,0.006-0.111,0.01-0.168c0.342,0.064,0.684,0.129,1.092,0.207c-0.199-0.438-0.375-0.814-0.549-1.193    c-0.035-0.098-0.072-0.195-0.107-0.291c-0.021-0.1-0.043-0.199-0.064-0.297c0.172,0.025,0.369-0.094,0.51,0.094    c-0.012,0.086-0.035,0.178,0.094,0.195c0.033,0.066,0.066,0.131,0.1,0.197c0.041,0.17,0.062,0.348,0.174,0.494    c0.02,0.07-0.023,0.176,0.105,0.184c0.027,0.037,0.057,0.076,0.084,0.113c-0.006,0.088-0.01,0.174,0.119,0.168    C14.377,30.102,14.244,30.334,14.281,30.535z"
   id="path98" />
		<path
   fill-rule="evenodd"
   clip-rule="evenodd"
   fill="#444444"
   d="M36.375,30.564c-0.049,0.004-0.096,0.008-0.145,0.012    c-0.062,0.008-0.127,0.018-0.191,0.027c-0.033-0.088-0.068-0.176-0.104-0.262c-0.02-0.1-0.039-0.197-0.059-0.295    c0.082-0.014,0.133-0.059,0.148-0.143c0.209-0.283,0.326-0.613,0.461-0.934c0.027-0.062,0.057-0.127,0.086-0.189    c0.014-0.07,0.027-0.139,0.043-0.207c0.176-0.148,0.387-0.094,0.586-0.094c-0.014,0.086-0.027,0.172-0.041,0.258l0.02,0.037    l-0.018-0.037c-0.062,0.027-0.152,0.027-0.131,0.137c-0.145,0.342-0.283,0.686-0.436,1.023c-0.045,0.102-0.141,0.189,0.025,0.264    c0,0.055,0,0.111,0.002,0.166c-0.061,0.104-0.348-0.008-0.242,0.254L36.375,30.564z"
   id="path100" />
		<path
   fill-rule="evenodd"
   clip-rule="evenodd"
   fill="#3C647E"
   d="M36.025,29.904c-0.016,0.084-0.066,0.129-0.148,0.143    c-0.051-0.098-0.104-0.195-0.154-0.293c-0.006-0.154-0.057-0.291-0.166-0.4c-0.004-0.088-0.006-0.176-0.01-0.264    c0.057-0.002,0.113-0.002,0.17-0.002C35.795,29.369,35.865,29.654,36.025,29.904z"
   id="path102" />
		<path
   fill-rule="evenodd"
   clip-rule="evenodd"
   fill="#E2E2E2"
   d="M13.977,29.645c-0.129-0.008-0.086-0.113-0.105-0.184    c0.035,0,0.068-0.002,0.104-0.002C13.975,29.52,13.977,29.582,13.977,29.645z"
   id="path104" />
		<path
   fill-rule="evenodd"
   clip-rule="evenodd"
   fill="#3C647E"
   d="M37.598,29.947c-0.076,0.049-0.154,0.1-0.23,0.148    c-0.248,0.078-0.496,0.156-0.744,0.232c-0.002-0.055-0.002-0.111-0.002-0.166C36.947,30.096,37.223,29.791,37.598,29.947z"
   id="path106" />
		<path
   fill-rule="evenodd"
   clip-rule="evenodd"
   fill="#D5D5D5"
   d="M37.162,28.738c0.014,0.045,0.025,0.09,0.039,0.135    c-0.057,0-0.113,0.002-0.17,0.002C37.01,28.766,37.1,28.766,37.162,28.738z"
   id="path108" />
		<path
   fill-rule="evenodd"
   clip-rule="evenodd"
   fill="#56B5DF"
   d="M20.537,37.594c-0.439,0.076-0.48,0.465-0.555,0.777    c-0.088,0.375-0.107,0.771-0.123,1.158c-0.025,0.582-0.279,0.896-0.865,0.898c-2.529,0.014-5.059,0.012-7.588,0.002    c-0.467-0.002-0.758-0.307-0.76-0.781c-0.008-2.514-0.01-5.025,0.002-7.539c0.002-0.391,0.146-0.799,0.582-0.855    c0.695-0.086,1.227-0.119,1.494,0.398c0.23,0.447,0.303,0.955,0.631,1.367c0.594,0.746,1.344,1.076,2.268,0.926    c0.943-0.154,1.564-0.732,1.891-1.631c0.158-0.434,0.227-0.943,0.811-1.057c0.309-0.061,0.627-0.074,0.924-0.014    c0.42,0.088,0.631,0.393,0.604,0.826c-0.029,0.48,0.059,0.939,0.199,1.393c0.08,0.262,0.16,0.533,0.486,0.6    c0.045,0.076,0.115,0.078,0.189,0.074c0.287,0.432,0.816,0.424,1.209,0.668c0.475,0.293,0.664,0.711,0.578,1.26    c-0.102,0.652-0.625,0.812-1.109,1.029c-0.246,0.109-0.535,0.15-0.676,0.426C20.654,37.516,20.582,37.52,20.537,37.594z     M14.615,36.576c-0.723,0.307-1.201,0.818-1.371,1.598c-0.115,0.52,0.078,0.787,0.609,0.791c0.932,0.008,1.861,0.008,2.791,0    c0.535-0.004,0.717-0.254,0.613-0.789c-0.152-0.793-0.664-1.277-1.359-1.613c0.604-0.664,0.646-1.256,0.141-1.766    c-0.434-0.436-1.096-0.449-1.539-0.033C13.947,35.281,13.975,35.795,14.615,36.576z"
   id="path110" />
		<path
   fill-rule="evenodd"
   clip-rule="evenodd"
   fill="#5DBBE5"
   d="M20.729,37.52c0.141-0.275,0.43-0.316,0.676-0.426    c0.484-0.217,1.008-0.377,1.109-1.029c0.086-0.549-0.104-0.967-0.578-1.26c-0.393-0.244-0.922-0.236-1.209-0.668    c0.705-0.355,1.594-0.133,2.145,0.537c0.543,0.664,0.543,1.645,0,2.309C22.32,37.654,21.432,37.877,20.729,37.52z"
   id="path112" />
		<path
   fill-rule="evenodd"
   clip-rule="evenodd"
   fill="#FDFDFD"
   d="M23.58,41.418c0.016,0.006,0.031,0.014,0.047,0.016    c0.227,0.014,0.545-0.336,0.648,0.152c0.064,0.307-0.314,0.777-0.635,0.807c-0.287,0.027-0.367-0.135-0.328-0.393    c0.027-0.172,0.215-0.287,0.172-0.484h-0.002c0.088,0.021,0.119-0.012,0.1-0.1L23.58,41.418z"
   id="path114" />
		<path
   fill-rule="evenodd"
   clip-rule="evenodd"
   fill="#FBD05F"
   d="M24.896,45.396c-0.102-0.414-0.209-0.826-0.299-1.242    c-0.061-0.275,0.18-0.357,0.344-0.348c0.152,0.008,0.412,0.072,0.348,0.354c-0.094,0.414-0.203,0.826-0.305,1.238    C24.955,45.398,24.926,45.398,24.896,45.396z"
   id="path116" />
		<path
   fill-rule="evenodd"
   clip-rule="evenodd"
   fill="#FBD05F"
   d="M23.582,41.416c0.02,0.088-0.012,0.121-0.1,0.1    C23.477,41.445,23.51,41.41,23.582,41.416z"
   id="path118" />
		<path
   fill-rule="evenodd"
   clip-rule="evenodd"
   fill="#3C647E"
   d="M14.615,13.153c-0.641-0.779-0.668-1.293-0.115-1.812    c0.445-0.416,1.105-0.401,1.539,0.035c0.506,0.51,0.461,1.1-0.141,1.766c0.695,0.334,1.207,0.82,1.359,1.612    c0.104,0.537-0.076,0.786-0.613,0.79c-0.932,0.007-1.861,0.007-2.791,0c-0.533-0.005-0.723-0.272-0.609-0.793    C13.414,13.972,13.895,13.461,14.615,13.153z"
   id="path120" />
		<path
   fill-rule="evenodd"
   clip-rule="evenodd"
   fill="#56B5DF"
   d="M34.758,40.533c-1.094,0-2.188,0.002-3.279-0.002    c-0.795-0.002-1.223-0.283-1.299-0.955c-0.074-0.631,0.129-1.199,0.875-1.451c0.605-0.205,1.113-0.52,1.467-1.07    c0.891-1.387,0.066-3.02-1.32-3.473c-0.508-0.166-0.893-0.42-0.99-1.016c-0.096-0.584,0.096-1.115,0.561-1.309    c0.654-0.275,1.285-0.094,1.627,0.449c0.15,0.24,0.176,0.521,0.287,0.773c0.42,0.955,1.301,1.521,2.314,1.486    c0.906-0.031,1.756-0.725,2.104-1.723c0.156-0.449,0.281-0.898,0.842-1.035c0.939-0.227,1.58,0.174,1.594,1.141    c0.035,2.316,0.031,4.635,0.002,6.951c-0.01,0.877-0.432,1.221-1.355,1.229C37.043,40.541,35.9,40.533,34.758,40.533z     M34.227,36.58c-0.75,0.311-1.207,0.822-1.379,1.582c-0.119,0.523,0.07,0.799,0.596,0.803c0.945,0.008,1.893,0.008,2.838,0    c0.479-0.004,0.674-0.26,0.592-0.73c-0.145-0.811-0.645-1.328-1.367-1.664c0.609-0.721,0.643-1.289,0.105-1.799    c-0.428-0.408-1.07-0.414-1.502-0.016C33.551,35.27,33.576,35.82,34.227,36.58z"
   id="path122" />
		<path
   fill-rule="evenodd"
   clip-rule="evenodd"
   fill="#E2E2E2"
   d="M14.486,29.758c-0.104,0.057-0.205,0.113-0.307,0.168    c-0.129,0.006-0.125-0.08-0.119-0.168C14.203,29.775,14.344,29.43,14.486,29.758z"
   id="path124" />
		<path
   fill-rule="evenodd"
   clip-rule="evenodd"
   fill="#3C647E"
   d="M14.615,36.576c-0.641-0.781-0.668-1.295-0.115-1.812    c0.443-0.416,1.105-0.402,1.539,0.033c0.506,0.51,0.463,1.102-0.141,1.766c0.695,0.336,1.207,0.82,1.359,1.613    c0.104,0.535-0.078,0.785-0.613,0.789c-0.93,0.008-1.859,0.008-2.791,0c-0.531-0.004-0.725-0.271-0.609-0.791    C13.414,37.395,13.893,36.883,14.615,36.576z"
   id="path126" />
		<path
   fill-rule="evenodd"
   clip-rule="evenodd"
   fill="#3C647E"
   d="M34.227,36.58c-0.65-0.76-0.676-1.311-0.117-1.824    c0.432-0.398,1.074-0.393,1.502,0.016c0.537,0.51,0.504,1.078-0.105,1.799c0.723,0.336,1.223,0.854,1.367,1.664    c0.082,0.471-0.113,0.727-0.592,0.73c-0.945,0.008-1.893,0.008-2.838,0c-0.525-0.004-0.715-0.279-0.596-0.803    C33.02,37.402,33.477,36.891,34.227,36.58z"
   id="path128" />
	</g>
	<path
   d="m 43.731769,21.760796 c 0,2.09805 0,4.165693 0,6.274475 -12.920191,0 -25.831122,0 -38.7790908,0 0,-2.08553 0,-4.165693 0,-6.274475 12.9164858,0 25.8190828,0 38.7790908,0 z"
   id="path132"
   inkscape:connector-curvature="0"
   style="clip-rule:evenodd;fill:#56b5df;fill-rule:evenodd;stroke-width:0.99999994;fill-opacity:1" />
	<text
   font-size="5"
   id="text134"
   style="font-size:4.47154713px;font-family:Gilroy-ExtraBold;stroke-width:0.99999994"
   x="5.378283"
   y="26.573191">COLLABORATION</text>

</g>
</svg>