<?xml version="1.0" encoding="UTF-8" standalone="no"?>
<!-- Generator: Adobe Illustrator 16.0.0, SVG Export Plug-In . SVG Version: 6.00 Build 0)  -->

<svg
   xmlns:dc="http://purl.org/dc/elements/1.1/"
   xmlns:cc="http://creativecommons.org/ns#"
   xmlns:rdf="http://www.w3.org/1999/02/22-rdf-syntax-ns#"
   xmlns:svg="http://www.w3.org/2000/svg"
   xmlns="http://www.w3.org/2000/svg"
   xmlns:sodipodi="http://sodipodi.sourceforge.net/DTD/sodipodi-0.dtd"
   xmlns:inkscape="http://www.inkscape.org/namespaces/inkscape"
   version="1.0"
   id="Layer_1"
   x="0px"
   y="0px"
   width="50px"
   height="50px"
   viewBox="0 0 50 50"
   enable-background="new 0 0 50 50"
   xml:space="preserve"
   sodipodi:docname="Sada_logo copy-01.svg"
   inkscape:version="0.92.3 (2405546, 2018-03-11)"><metadata
   id="metadata83"><rdf:RDF><cc:Work
       rdf:about=""><dc:format>image/svg+xml</dc:format><dc:type
         rdf:resource="http://purl.org/dc/dcmitype/StillImage" /></cc:Work></rdf:RDF></metadata><defs
   id="defs81" /><sodipodi:namedview
   pagecolor="#ffffff"
   bordercolor="#666666"
   borderopacity="1"
   objecttolerance="10"
   gridtolerance="10"
   guidetolerance="10"
   inkscape:pageopacity="0"
   inkscape:pageshadow="2"
   inkscape:window-width="1839"
   inkscape:window-height="1025"
   id="namedview79"
   showgrid="false"
   inkscape:zoom="13.350176"
   inkscape:cx="19.509978"
   inkscape:cy="21.629571"
   inkscape:window-x="81"
   inkscape:window-y="27"
   inkscape:window-maximized="1"
   inkscape:current-layer="g76" />
<g
   id="g76">
	<g
   id="g38">
		<path
   fill-rule="evenodd"
   clip-rule="evenodd"
   d="M24.967,49.5C11.438,49.479,0.482,38.495,0.5,24.967    C0.518,11.442,11.51,0.479,25.033,0.5C38.583,0.522,49.545,11.535,49.5,25.084C49.456,38.59,38.472,49.521,24.967,49.5z     M49.002,24.988C48.998,11.732,38.281,1.009,25.025,0.998C11.746,0.985,1,11.714,0.998,24.986    C0.996,38.272,11.721,49.003,25,49.002C38.28,49.001,49.006,38.271,49.002,24.988z"
   id="path2" />
		<path
   d="m 48.37093,22.761391 c 0,1.569551 0,3.117693 0,4.693934 -15.578084,0 -31.146837,0 -46.7575775,0 0,-1.559516 0,-3.116354 0,-4.693934 15.5757515,0 31.1305095,0 46.7575775,0 z"
   id="path4"
   inkscape:connector-curvature="0"
   style="clip-rule:evenodd;fill:#c03b37;fill-rule:evenodd;stroke-width:1" />
		<path
   fill-rule="evenodd"
   clip-rule="evenodd"
   d="M13.584,32.124c0.383-1.505,1.426-2.19,2.813-2.399    c1.424-0.213,2.706,0.124,3.632,1.303c0.746,0.949,0.604,1.979-0.406,3.171c0.979,0.188,0.896,0.937,0.865,1.782    c0.609-0.479,1.171-0.853,1.654-1.311c0.515-0.488,1.082-0.592,1.768-0.455c0,2.356,0,4.72,0,7.113    c-0.581,0.073-1.119,0.117-1.617-0.346c-0.531-0.495-1.139-0.908-1.798-1.423c0,0.284,0.001,0.476,0,0.667    c-0.007,0.697-0.353,1.12-1.056,1.127c-2.354,0.025-4.709,0.024-7.063,0.003c-0.729-0.008-1.062-0.419-1.063-1.161    c-0.002-0.482-0.001-0.964-0.001-1.5c-0.383-0.02-0.739-0.036-1.13-0.055c0-0.575,0-1.135,0-1.719    c0.088-0.024,0.197-0.053,0.367-0.098c-0.158-0.054-0.273-0.073-0.369-0.127c-0.57-0.327-1.225-0.57-1.686-1.012    c-0.895-0.861-0.85-2.135-0.016-3.065c1.06-1.186,3.119-1.508,4.674-0.727C13.286,31.96,13.415,32.033,13.584,32.124z     M19.353,37.086c0-0.505-0.011-0.951,0.004-1.396c0.015-0.428-0.205-0.625-0.601-0.626c-1.901-0.008-3.802-0.007-5.703-0.001    c-0.392,0-0.623,0.186-0.621,0.61c0.004,1.401,0.006,2.802,0,4.203c-0.002,0.374,0.195,0.576,0.537,0.59    c0.658,0.024,1.317,0.008,2.132,0.008c-0.452-0.355-0.776-0.631-1.122-0.873c-0.274-0.191-0.383-0.42-0.372-0.757    c0.022-0.733,0.022-1.469,0.001-2.201c-0.014-0.478,0.204-0.672,0.654-0.671c0.584,0.002,1.172,0.05,1.75-0.011    c1.223-0.126,2.311,0.084,3.168,1.039C19.2,37.023,19.236,37.03,19.353,37.086z M17.029,34.314    c0.576-0.228,1.127-0.35,1.568-0.639c1.02-0.668,1.008-1.899,0.031-2.629c-0.9-0.674-2.343-0.654-3.223,0.044    c-0.878,0.697-0.918,1.857-0.006,2.507C15.865,33.929,16.465,34.074,17.029,34.314z M11.289,35.098    c-0.148-0.039-0.262-0.067-0.373-0.101c-0.436-0.13-0.777-0.383-0.754-0.868c0.023-0.479,0.386-0.714,0.82-0.822    c0.65-0.162,1.148,0.116,1.529,0.82c0.367,0,0.722,0,1.182,0c-0.168-0.353-0.258-0.663-0.439-0.902    c-0.882-1.164-3.035-1.156-3.926,0c-0.366,0.475-0.443,1-0.2,1.551c0.327,0.739,1.313,1.255,2.161,1.134    C11.289,35.651,11.289,35.391,11.289,35.098z M17.015,38.649c0-0.611,0-1.183,0-1.746c-0.775,0-1.513,0-2.25,0    c0,0.603,0,1.16,0,1.746C15.519,38.649,16.244,38.649,17.015,38.649z M22.787,35.164c-1.16,0.391-1.248,1.279-1.15,2.283    c0.069,0.703,0.754,0.738,1.15,1.285C22.787,37.435,22.787,36.309,22.787,35.164z"
   id="path6" />
		<path
   fill-rule="evenodd"
   clip-rule="evenodd"
   d="M34.179,31.671c1.836,0,3.672,0,5.508,0.001c1.026,0,1.478,0.44,1.478,1.448    c0.003,2.604,0.003,5.207,0,7.812c-0.001,0.936-0.478,1.415-1.422,1.416c-3.722,0.004-7.444,0.004-11.167-0.001    c-0.934-0.001-1.4-0.486-1.401-1.435c-0.002-2.604-0.002-5.208,0-7.811c0.001-0.975,0.463-1.429,1.446-1.43    C30.474,31.67,32.326,31.671,34.179,31.671z M40.329,38.98c0-2.112,0.003-4.109-0.004-6.107c-0.001-0.345-0.237-0.435-0.546-0.434    c-3.756,0.002-7.513,0.003-11.269-0.001c-0.403,0-0.571,0.175-0.567,0.575c0.012,0.952,0.004,1.904,0.004,2.855    c0,0.758,0,1.517,0,2.399c1.299-1.2,2.503-2.314,3.724-3.442c1.513,1.421,2.992,2.81,4.481,4.209    c0.736-0.597,1.43-1.159,2.125-1.722C38.959,37.867,39.593,38.382,40.329,38.98z M37.66,41.481    c-2.042-1.92-4.004-3.764-5.943-5.587c-0.063,0.009-0.085,0.005-0.095,0.015c-0.861,0.789-1.676,1.64-2.596,2.354    c-0.859,0.667-1.238,1.426-1.095,2.513c0.089,0.669,0.071,0.732,0.769,0.732c2.788,0.001,5.577,0.001,8.366,0    C37.225,41.508,37.384,41.493,37.66,41.481z M36.719,39.57c0.565,0.53,1.133,0.979,1.595,1.518    c0.498,0.583,1.106,0.399,1.701,0.395c0.071,0,0.2-0.075,0.202-0.119c0.02-0.5,0.223-1.165-0.02-1.465    c-0.517-0.641-1.268-1.094-1.92-1.621C37.741,38.723,37.255,39.125,36.719,39.57z"
   id="path8" />
		<path
   fill-rule="evenodd"
   clip-rule="evenodd"
   d="M15.333,9.323c0,3.688,0,7.283,0,10.958c-0.848-0.85-1.633-1.66-2.448-2.438    c-0.17-0.162-0.453-0.278-0.688-0.285c-1.064-0.031-2.132-0.013-3.231-0.013c0-1.826,0-3.621,0-5.484    c0.138-0.007,0.295-0.021,0.452-0.021c0.869-0.003,1.736-0.026,2.604,0.008c0.44,0.018,0.744-0.129,1.041-0.442    C13.783,10.847,14.535,10.12,15.333,9.323z"
   id="path10" />
		<path
   fill-rule="evenodd"
   clip-rule="evenodd"
   d="M27.969,12.304c0-2.152-0.001-4.305,0.001-6.457    c0.001-0.962,0.441-1.404,1.408-1.406c1.902-0.002,3.805-0.01,5.707,0.013c0.229,0.003,0.522,0.129,0.673,0.298    c1.02,1.146,2.015,2.316,3,3.493c0.124,0.148,0.205,0.381,0.206,0.575c0.013,3.388,0.011,6.776,0.008,10.163    c0,0.677-0.436,1.145-1.116,1.147c-2.902,0.01-5.806,0.01-8.71,0.001c-0.729-0.003-1.173-0.495-1.175-1.269    C27.966,16.677,27.969,14.491,27.969,12.304z M34.957,5.043c-0.215-0.011-0.377-0.027-0.539-0.027    c-1.669-0.002-3.337-0.003-5.006-0.001c-0.708,0.001-0.87,0.168-0.87,0.894c0,4.255,0,8.51,0,12.765    c0,0.74,0.144,0.889,0.865,0.89c2.72,0.001,5.439,0.001,8.159-0.001c0.721,0,0.876-0.156,0.876-0.886    c0.001-3.019,0.001-6.04,0.001-9.06c0-0.16,0-0.321,0-0.52c-0.755,0-1.438,0.002-2.12-0.001c-0.943-0.005-1.363-0.431-1.365-1.382    C34.955,6.834,34.957,5.955,34.957,5.043z M35.521,5.305c0,0.978-0.022,1.819,0.019,2.657c0.009,0.182,0.238,0.493,0.384,0.503    c0.743,0.051,1.493,0.023,2.318,0.023C37.32,7.411,36.464,6.41,35.521,5.305z"
   id="path12" />
		<path
   fill-rule="evenodd"
   clip-rule="evenodd"
   d="M19.615,19.923c-0.193-0.183-0.385-0.365-0.604-0.574    c1.202-1.293,1.86-2.795,1.856-4.565c-0.004-1.753-0.658-3.241-1.844-4.527c0.07-0.08,0.127-0.14,0.179-0.203    c0.128-0.152,0.255-0.306,0.38-0.457C22.73,12.47,22.317,17.698,19.615,19.923z"
   id="path14" />
		<path
   fill-rule="evenodd"
   clip-rule="evenodd"
   d="M18.373,18.642c-0.193-0.22-0.367-0.419-0.574-0.656    c0.77-0.858,1.261-1.92,1.258-3.18c-0.002-1.246-0.455-2.306-1.295-3.224c0.206-0.208,0.412-0.415,0.617-0.621    C20.477,12.911,20.488,16.591,18.373,18.642z"
   id="path16" />
		<path
   fill-rule="evenodd"
   clip-rule="evenodd"
   d="M17.046,17.363c-0.192-0.223-0.366-0.423-0.562-0.647    c0.986-1.25,1.023-2.552-0.025-3.853c0.206-0.192,0.411-0.383,0.617-0.575C18.467,13.466,18.486,15.914,17.046,17.363z"
   id="path18" />
		<path
   fill-rule="evenodd"
   clip-rule="evenodd"
   d="M17.055,33.255c-0.624,0.004-1.135-0.395-1.139-0.888    c-0.003-0.498,0.498-0.896,1.127-0.898c0.621-0.002,1.146,0.402,1.15,0.887C18.196,32.84,17.676,33.252,17.055,33.255z"
   id="path20" />
		<path
   fill-rule="evenodd"
   clip-rule="evenodd"
   d="M34.641,34.939c-0.003-0.884,0.699-1.596,1.58-1.6    c0.878-0.005,1.605,0.71,1.61,1.581c0.005,0.863-0.725,1.598-1.595,1.605C35.357,36.534,34.645,35.826,34.641,34.939z     M37.083,34.876c-0.011-0.471-0.403-0.838-0.878-0.825c-0.468,0.012-0.847,0.407-0.832,0.873c0.015,0.46,0.425,0.85,0.88,0.834    C36.713,35.743,37.096,35.337,37.083,34.876z"
   id="path22" />
		<path
   fill-rule="evenodd"
   clip-rule="evenodd"
   d="M37.235,17.28c0,0.168,0,0.325,0,0.51c-2.492,0-4.969,0-7.491,0    c-0.01-0.158-0.02-0.315-0.031-0.51C32.234,17.28,34.722,17.28,37.235,17.28z"
   id="path24" />
		<path
   fill-rule="evenodd"
   clip-rule="evenodd"
   d="M29.751,14.285c0-0.154,0-0.312,0-0.503c2.497,0,4.984,0,7.491,0    c0,0.171,0,0.317,0,0.503C34.756,14.285,32.27,14.285,29.751,14.285z"
   id="path26" />
		<path
   fill-rule="evenodd"
   clip-rule="evenodd"
   d="M29.742,10.804c-0.01-0.157-0.019-0.302-0.029-0.495c2.516,0,5.008,0,7.523,0    c0,0.16,0,0.316,0,0.495C34.732,10.804,32.249,10.804,29.742,10.804z"
   id="path28" />
		<path
   fill-rule="evenodd"
   clip-rule="evenodd"
   d="M35.483,12.04c0,0.178,0,0.334,0,0.517c-1.921,0-3.812,0-5.734,0    c0-0.182,0-0.338,0-0.517C31.669,12.04,33.562,12.04,35.483,12.04z"
   id="path30" />
		<path
   fill-rule="evenodd"
   clip-rule="evenodd"
   d="M34.917,15.547c0,0.168,0,0.309,0,0.482c-1.729,0-3.438,0-5.172,0    c0-0.157,0-0.3,0-0.482C31.45,15.547,33.157,15.547,34.917,15.547z"
   id="path32" />
		<path
   fill-rule="evenodd"
   clip-rule="evenodd"
   d="M29.738,7.304c0-0.164,0-0.309,0-0.486c1.323,0,2.635,0,4.002,0    c0.009,0.144,0.018,0.297,0.029,0.486C32.404,7.304,31.081,7.304,29.738,7.304z"
   id="path34" />
		<path
   fill-rule="evenodd"
   clip-rule="evenodd"
   d="M29.747,9.07c0-0.186,0-0.343,0-0.524c0.939,0,1.853,0,2.828,0    c0.008,0.162,0.017,0.328,0.026,0.524C31.636,9.07,30.724,9.07,29.747,9.07z"
   id="path36" />
	</g>
	<g
   id="g74">
		<path
   d="M 60.363,26.228 H 59.802 V 24.8 l -0.635,1.041 H 59.105 L 58.47,24.8 v 1.428 h -0.561 v -2.455 h 0.561 l 0.665,1.091 0.667,-1.091 h 0.561 z"
   id="path40"
   inkscape:connector-curvature="0" />
		<path
   d="m 60.768,25.435 v -1.662 h 0.562 v 1.613 c 0,0.186 0.088,0.344 0.385,0.344 0.299,0 0.387,-0.158 0.387,-0.344 v -1.613 h 0.562 v 1.662 c 0,0.525 -0.407,0.842 -0.948,0.842 -0.541,-0.001 -0.948,-0.317 -0.948,-0.842 z"
   id="path42"
   inkscape:connector-curvature="0" />
		<path
   d="m 64.504,25.687 v 0.541 h -1.438 v -2.455 h 0.562 v 1.914 z"
   id="path44"
   inkscape:connector-curvature="0" />
		<path
   d="m 66.154,24.312 h -0.632 v 1.915 H 64.96 v -1.915 h -0.63 v -0.54 h 1.824 z"
   id="path46"
   inkscape:connector-curvature="0" />
		<path
   d="m 66.961,23.772 v 2.455 H 66.4 v -2.455 z"
   id="path48"
   inkscape:connector-curvature="0" />
		<path
   d="M 69.837,26.228 H 69.275 V 24.8 L 68.64,25.841 H 68.578 L 67.944,24.8 v 1.428 h -0.562 v -2.455 h 0.562 l 0.665,1.091 0.667,-1.091 h 0.562 v 2.455 z"
   id="path50"
   inkscape:connector-curvature="0" />
		<path
   d="m 72.435,25 c 0,0.694 -0.516,1.228 -1.193,1.228 H 70.26 v -2.455 h 0.981 c 0.678,-0.001 1.194,0.533 1.194,1.227 z m -0.541,0 c 0,-0.421 -0.267,-0.688 -0.652,-0.688 h -0.42 v 1.374 h 0.42 c 0.385,0.001 0.652,-0.265 0.652,-0.686 z"
   id="path52"
   inkscape:connector-curvature="0" />
		<path
   d="m 72.646,25 c 0,-0.723 0.572,-1.276 1.276,-1.276 0.705,0 1.276,0.554 1.276,1.276 0,0.722 -0.571,1.276 -1.276,1.276 -0.704,0 -1.276,-0.554 -1.276,-1.276 z m 1.992,0 c 0,-0.438 -0.315,-0.729 -0.716,-0.729 -0.399,0 -0.716,0.291 -0.716,0.729 0,0.438 0.316,0.729 0.716,0.729 0.401,0 0.716,-0.291 0.716,-0.729 z"
   id="path54"
   inkscape:connector-curvature="0" />
		<path
   d="m 77.691,25 c 0,0.694 -0.516,1.228 -1.192,1.228 h -0.981 v -2.455 h 0.981 c 0.676,-0.001 1.192,0.533 1.192,1.227 z m -0.541,0 c 0,-0.421 -0.266,-0.688 -0.651,-0.688 h -0.421 v 1.374 h 0.421 C 76.884,25.687 77.15,25.421 77.15,25 Z"
   id="path56"
   inkscape:connector-curvature="0" />
		<path
   d="m 79.357,25.841 h -0.91 l -0.123,0.387 H 77.71 l 0.834,-2.455 h 0.715 l 0.836,2.455 H 79.48 Z m -0.168,-0.526 -0.287,-0.901 -0.287,0.901 z"
   id="path58"
   inkscape:connector-curvature="0" />
		<path
   d="m 81.744,25.687 v 0.541 h -1.438 v -2.455 h 0.561 v 1.914 z"
   id="path60"
   inkscape:connector-curvature="0" />
		<path
   d="M 85.322,26.228 H 84.761 V 24.8 l -0.635,1.041 H 84.064 L 83.43,24.8 v 1.428 h -0.562 v -2.455 h 0.562 l 0.666,1.091 0.666,-1.091 h 0.561 v 2.455 z"
   id="path62"
   inkscape:connector-curvature="0" />
		<path
   d="m 87.184,25.841 h -0.912 l -0.123,0.387 h -0.613 l 0.834,-2.455 h 0.715 l 0.836,2.455 h -0.615 z m -0.168,-0.526 -0.289,-0.901 -0.287,0.901 z"
   id="path64"
   inkscape:connector-curvature="0" />
		<path
   d="m 89.479,26.228 -0.785,-1.137 v 1.137 h -0.562 v -2.455 h 0.562 v 1.066 l 0.75,-1.066 h 0.639 l -0.828,1.196 0.863,1.259 z"
   id="path66"
   inkscape:connector-curvature="0" />
		<path
   d="m 90.889,23.772 v 2.455 h -0.561 v -2.455 z"
   id="path68"
   inkscape:connector-curvature="0" />
		<path
   d="m 93.238,23.772 v 2.455 h -0.42 l -0.947,-1.333 v 1.333 H 91.31 v -2.455 h 0.42 l 0.947,1.333 v -1.333 z"
   id="path70"
   inkscape:connector-curvature="0" />
		<path
   d="m 96.092,25.07 c 0,0.75 -0.523,1.206 -1.211,1.206 -0.771,0 -1.324,-0.568 -1.324,-1.272 0,-0.713 0.564,-1.28 1.285,-1.28 0.471,0 0.867,0.23 1.074,0.561 l -0.477,0.274 c -0.102,-0.162 -0.322,-0.288 -0.6,-0.288 -0.414,0 -0.723,0.305 -0.723,0.736 0,0.417 0.295,0.723 0.771,0.723 0.326,0 0.539,-0.145 0.627,-0.379 H 94.86 V 24.86 h 1.23 v 0.21 z"
   id="path72"
   inkscape:connector-curvature="0" />
	</g>
<text
   y="26.479229"
   x="2.2706139"
   style="font-size:5.50856686px;font-family:Gilroy-ExtraBold;stroke-width:1"
   font-size="5"
   id="text50"><tspan
     style="font-size:3.9333334px;stroke-width:1"
     id="tspan896">MULTIMODAL MEANING</tspan></text>
</g>
</svg>