<svg height='100px' width='100px'  fill="#000000" xmlns="http://www.w3.org/2000/svg" xmlns:xlink="http://www.w3.org/1999/xlink" version="1.1" x="0px" y="0px" viewBox="0 0 100 100" style="enable-background:new 0 0 100 100;" xml:space="preserve"><path d="M86.9,50c0-20.3-16.5-36.9-36.9-36.9S13.1,29.7,13.1,50S29.7,86.9,50,86.9S86.9,70.3,86.9,50z M50,24.3  c3.1,0,5.6,2.5,5.6,5.6c0,3.1-2.5,5.6-5.6,5.6c-3.1,0-5.6-2.5-5.6-5.6C44.4,26.9,46.9,24.3,50,24.3z M44.4,73.2  c-0.5,1.1-1.5,1.7-2.6,1.7c-0.4,0-0.8-0.1-1.2-0.3c-1.5-0.7-2.1-2.4-1.4-3.9c0,0,5.5-12.6,6.5-17.2c0.4-1.6,0.6-5.9,0.7-7.9  c0-0.7-0.4-1.3-1-1.5L33,40.5c-1.6-0.5-2.5-2.2-2-3.7c0.5-1.5,2.2-2.2,3.7-1.8c0,0,11.3,3.6,15.3,3.6c4,0,15.5-3.7,15.5-3.7  c1.5-0.4,3.2,0.5,3.6,2c0.4,1.5-0.5,3.2-2,3.6l-12.3,3.7c-0.6,0.2-1.1,0.8-1,1.5c0.1,2,0.3,6.3,0.7,7.9c1,4.6,6.5,17.2,6.5,17.2  c0.7,1.5,0,3.2-1.4,3.9c-0.4,0.2-0.8,0.3-1.2,0.3c-1.1,0-2.2-0.6-2.6-1.7L50,61.2L44.4,73.2z"></path></svg>