<?xml version="1.0" encoding="UTF-8" standalone="no"?>
<!-- Created with Inkscape (http://www.inkscape.org/) -->

<svg
   xmlns:dc="http://purl.org/dc/elements/1.1/"
   xmlns:cc="http://creativecommons.org/ns#"
   xmlns:rdf="http://www.w3.org/1999/02/22-rdf-syntax-ns#"
   xmlns:svg="http://www.w3.org/2000/svg"
   xmlns="http://www.w3.org/2000/svg"
   xmlns:sodipodi="http://sodipodi.sourceforge.net/DTD/sodipodi-0.dtd"
   xmlns:inkscape="http://www.inkscape.org/namespaces/inkscape"
   width="1000"
   height="1000"
   viewBox="0 0 264.58332 264.58334"
   version="1.1"
   id="svg2713"
   inkscape:version="0.92.4 (5da689c313, 2019-01-14)"
   sodipodi:docname="pilalrs.svg">
  <defs
     id="defs2707" />
  <sodipodi:namedview
     id="base"
     pagecolor="#ffffff"
     bordercolor="#666666"
     borderopacity="1.0"
     inkscape:pageopacity="0.0"
     inkscape:pageshadow="2"
     inkscape:zoom="0.49497475"
     inkscape:cx="261.50443"
     inkscape:cy="548.82908"
     inkscape:document-units="mm"
     inkscape:current-layer="g27833"
     showgrid="false"
     units="px"
     inkscape:window-width="1366"
     inkscape:window-height="745"
     inkscape:window-x="-8"
     inkscape:window-y="-8"
     inkscape:window-maximized="1"
     showguides="true"
     inkscape:guide-bbox="true">
    <sodipodi:guide
       position="145.87282,100.21028"
       orientation="0,1"
       id="guide1030"
       inkscape:locked="false" />
  </sodipodi:namedview>
  <metadata
     id="metadata2710">
    <rdf:RDF>
      <cc:Work
         rdf:about="">
        <dc:format>image/svg+xml</dc:format>
        <dc:type
           rdf:resource="http://purl.org/dc/dcmitype/StillImage" />
        <dc:title />
      </cc:Work>
    </rdf:RDF>
  </metadata>
  <g
     inkscape:label="Layer 1"
     inkscape:groupmode="layer"
     id="layer1"
     transform="translate(0,-32.41665)">
    <text
       xml:space="preserve"
       style="font-style:normal;font-variant:normal;font-weight:normal;font-stretch:normal;font-size:30.9449234px;line-height:0%;font-family:Cabin;-inkscape-font-specification:Cabin;letter-spacing:0px;word-spacing:0px;fill:#a61680;fill-opacity:1;stroke:none;stroke-width:0.26458335"
       x="93.26329"
       y="254.57578"
       id="text9988"><tspan
         sodipodi:role="line"
         id="tspan9986"
         x="93.26329"
         y="254.57578"
         style="font-size:9.17222214px;line-height:1.25;fill:#a61680;fill-opacity:1;stroke-width:0.26458335">Constructivism</tspan></text>
    <text
       xml:space="preserve"
       style="font-style:normal;font-variant:normal;font-weight:normal;font-stretch:normal;font-size:30.9449234px;line-height:0%;font-family:Cabin;-inkscape-font-specification:Cabin;letter-spacing:0px;word-spacing:0px;fill:#5387c6;fill-opacity:1;stroke:none;stroke-width:0.26458335"
       x="90.262604"
       y="271.50934"
       id="text9996"><tspan
         sodipodi:role="line"
         id="tspan9994"
         x="90.262604"
         y="271.50934"
         style="font-size:9.17222214px;line-height:1.25;fill:#5387c6;fill-opacity:1;stroke-width:0.26458335">Constructionism</tspan></text>
    <path
       id="path9893"
       d="M 218.28727,246.07915 H 28.15318 a 0.84818303,0.80194511 0 1 1 0,-1.55934 h 190.13409 a 0.84818303,0.80194511 0 1 1 0,1.55934 z"
       inkscape:connector-curvature="0"
       style="fill:#666666;stroke-width:1.58556139" />
    <path
       id="path9895"
       d="M 227.78222,260.28228 H 18.658241 a 0.84818303,0.80194511 0 1 1 0,-1.55934 H 227.78222 a 0.84818303,0.80194511 0 1 1 0,1.55934 z"
       inkscape:connector-curvature="0"
       style="fill:#666666;stroke-width:1.58556139" />
    <path
       id="path9897"
       d="M 234.12003,275.31258 H 12.320446 a 0.84818303,0.80194511 0 1 1 0,-1.55934 H 234.12003 a 0.84818303,0.80194511 0 1 1 0,1.55934 z"
       inkscape:connector-curvature="0"
       style="fill:#666666;stroke-width:1.58556139" />
    <g
       id="g27833"
       transform="translate(-11.97189,276.7698)">
      <g
         id="g4332"
         transform="matrix(3.1472917,0,0,2.3790276,468.75705,-124.35995)"
         style="fill:#666666">
        <path
           id="path9877"
           d="m -78.865941,-25.605067 h -10.793025 a 0.78075895,0.92982521 0 0 1 0,-1.85965 h 10.793025 a 0.78075895,0.92982521 0 0 1 0,1.85965 z m -10.793025,-1.343949 a 0.34117196,0.40631015 0 1 0 0,0.781366 h 10.793025 a 0.34117196,0.40631015 0 0 0 0,-0.781366 z"
           inkscape:connector-curvature="0"
           style="fill:#666666;stroke-width:0.57944846" />
        <path
           id="path9879"
           d="m -80.34219,-23.268784 h -7.873336 a 0.78075895,0.92982521 0 1 1 0,-1.85965 h 7.873336 a 0.78075895,0.92982521 0 1 1 0,1.85965 z m -7.873336,-1.336136 a 0.34117196,0.40631015 0 1 0 0,0.781366 h 7.873336 a 0.34117196,0.40631015 0 1 0 0,-0.781366 z"
           inkscape:connector-curvature="0"
           style="fill:#666666;stroke-width:0.57944846" />
        <path
           id="path9881"
           d="m -80.34219,15.143162 h -7.873336 a 0.78075907,0.92982535 0 1 1 0,-1.859647 h 7.873336 a 0.78075907,0.92982535 0 0 1 0,1.859647 z m -7.873336,-1.336133 a 0.34117196,0.40631015 0 1 0 0,0.781364 h 7.873336 a 0.34117196,0.40631015 0 1 0 0,-0.781364 z"
           inkscape:connector-curvature="0"
           style="fill:#666666;stroke-width:0.57944846" />
        <path
           id="path9883"
           d="m -81.490388,12.767815 h -5.544132 a 1.2137848,1.4455265 0 0 1 -1.213803,-1.445524 v -32.653289 a 1.2137848,1.4455265 0 0 1 1.213803,-1.437712 h 5.544132 a 1.2137848,1.4455265 0 0 1 1.213808,1.445527 v 32.653288 a 1.2137848,1.4455265 0 0 1 -1.213808,1.43771 z m -5.544132,-35.020823 a 0.77419788,0.92201149 0 0 0 -0.77421,0.92201 v 32.661103 a 0.77419788,0.92201149 0 0 0 0.77421,0.92201 h 5.544132 a 0.77419788,0.92201149 0 0 0 0.774214,-0.92201 v -32.661103 a 0.77419788,0.92201149 0 0 0 -0.774214,-0.92201 z"
           inkscape:connector-curvature="0"
           style="fill:#666666;stroke-width:0.57944846" />
        <path
           id="path9885"
           d="m -86.122523,10.306518 a 0.22307396,0.26566433 0 0 1 -0.203405,-0.25785 v -30.098225 a 0.22307396,0.26566433 0 0 1 0.439594,0 v 30.098225 a 0.22307396,0.26566433 0 0 1 -0.236189,0.25785 z"
           inkscape:connector-curvature="0"
           style="fill:#666666;stroke-width:0.57944846" />
        <path
           id="path9887"
           d="m -84.259173,10.306518 a 0.22307396,0.26566433 0 0 1 -0.223076,-0.265664 v -30.090411 a 0.22307396,0.26566433 0 1 1 0.439594,0 v 30.098225 a 0.22307396,0.26566433 0 0 1 -0.216518,0.25785 z"
           inkscape:connector-curvature="0"
           style="fill:#666666;stroke-width:0.57944846" />
        <path
           id="path9889"
           d="m -82.389258,10.306518 a 0.22307396,0.26566433 0 0 1 -0.223075,-0.265664 v -30.090411 a 0.22307396,0.26566433 0 0 1 0.439593,0 v 30.098225 a 0.22307396,0.26566433 0 0 1 -0.216518,0.25785 z"
           inkscape:connector-curvature="0"
           style="fill:#666666;stroke-width:0.57944846" />
        <path
           id="path9891"
           d="m -78.701916,16.104239 a 0.32148895,0.38286917 0 0 1 0.262442,0.148459 l 0.859516,1.429896 a 0.23619596,0.28129164 0 0 1 0,0.304733 0.30836696,0.36724187 0 0 1 -0.282141,0.19534 h -12.820393 a 0.30836696,0.36724187 0 0 1 -0.282135,-0.19534 0.23619596,0.28129164 0 0 1 0,-0.304733 l 0.859511,-1.429896 a 0.32148895,0.38286917 0 0 1 0.262441,-0.148459 h 11.153886 m 0,-0.523514 h -11.153886 a 0.76107589,0.90638417 0 0 0 -0.616742,0.375055 l -0.859506,1.429896 a 0.7085879,0.84387492 0 0 0 0.616748,1.328319 h 12.859763 a 0.7085879,0.84387492 0 0 0 0.616742,-1.328319 l -0.859504,-1.429896 a 0.76107589,0.90638417 0 0 0 -0.616742,-0.375055 z"
           inkscape:connector-curvature="0"
           style="fill:#666666;stroke-width:0.57944846" />
      </g>
      <g
         transform="matrix(3.1472917,0,0,2.3790276,402.01148,-122.77244)"
         id="g4342"
         style="fill:#666666">
        <path
           style="fill:#666666;stroke-width:0.57944846"
           inkscape:connector-curvature="0"
           d="m -78.865941,-25.605067 h -10.793025 a 0.78075895,0.92982521 0 0 1 0,-1.85965 h 10.793025 a 0.78075895,0.92982521 0 0 1 0,1.85965 z m -10.793025,-1.343949 a 0.34117196,0.40631015 0 1 0 0,0.781366 h 10.793025 a 0.34117196,0.40631015 0 0 0 0,-0.781366 z"
           id="path4344" />
        <path
           style="fill:#666666;stroke-width:0.57944846"
           inkscape:connector-curvature="0"
           d="m -80.34219,-23.268784 h -7.873336 a 0.78075895,0.92982521 0 1 1 0,-1.85965 h 7.873336 a 0.78075895,0.92982521 0 1 1 0,1.85965 z m -7.873336,-1.336136 a 0.34117196,0.40631015 0 1 0 0,0.781366 h 7.873336 a 0.34117196,0.40631015 0 1 0 0,-0.781366 z"
           id="path4346" />
        <path
           style="fill:#666666;stroke-width:0.57944846"
           inkscape:connector-curvature="0"
           d="m -80.34219,15.143162 h -7.873336 a 0.78075907,0.92982535 0 1 1 0,-1.859647 h 7.873336 a 0.78075907,0.92982535 0 0 1 0,1.859647 z m -7.873336,-1.336133 a 0.34117196,0.40631015 0 1 0 0,0.781364 h 7.873336 a 0.34117196,0.40631015 0 1 0 0,-0.781364 z"
           id="path4348" />
        <path
           style="fill:#666666;stroke-width:0.57944846"
           inkscape:connector-curvature="0"
           d="m -81.490388,12.767815 h -5.544132 a 1.2137848,1.4455265 0 0 1 -1.213803,-1.445524 v -32.653289 a 1.2137848,1.4455265 0 0 1 1.213803,-1.437712 h 5.544132 a 1.2137848,1.4455265 0 0 1 1.213808,1.445527 v 32.653288 a 1.2137848,1.4455265 0 0 1 -1.213808,1.43771 z m -5.544132,-35.020823 a 0.77419788,0.92201149 0 0 0 -0.77421,0.92201 v 32.661103 a 0.77419788,0.92201149 0 0 0 0.77421,0.92201 h 5.544132 a 0.77419788,0.92201149 0 0 0 0.774214,-0.92201 v -32.661103 a 0.77419788,0.92201149 0 0 0 -0.774214,-0.92201 z"
           id="path4350" />
        <path
           style="fill:#666666;stroke-width:0.57944846"
           inkscape:connector-curvature="0"
           d="m -86.122523,10.306518 a 0.22307396,0.26566433 0 0 1 -0.203405,-0.25785 v -30.098225 a 0.22307396,0.26566433 0 0 1 0.439594,0 v 30.098225 a 0.22307396,0.26566433 0 0 1 -0.236189,0.25785 z"
           id="path4352" />
        <path
           style="fill:#666666;stroke-width:0.57944846"
           inkscape:connector-curvature="0"
           d="m -84.259173,10.306518 a 0.22307396,0.26566433 0 0 1 -0.223076,-0.265664 v -30.090411 a 0.22307396,0.26566433 0 1 1 0.439594,0 v 30.098225 a 0.22307396,0.26566433 0 0 1 -0.216518,0.25785 z"
           id="path4354" />
        <path
           style="fill:#666666;stroke-width:0.57944846"
           inkscape:connector-curvature="0"
           d="m -82.389258,10.306518 a 0.22307396,0.26566433 0 0 1 -0.223075,-0.265664 v -30.090411 a 0.22307396,0.26566433 0 0 1 0.439593,0 v 30.098225 a 0.22307396,0.26566433 0 0 1 -0.216518,0.25785 z"
           id="path4357" />
        <path
           style="fill:#666666;stroke-width:0.57944846"
           inkscape:connector-curvature="0"
           d="m -78.701916,16.104239 a 0.32148895,0.38286917 0 0 1 0.262442,0.148459 l 0.859516,1.429896 a 0.23619596,0.28129164 0 0 1 0,0.304733 0.30836696,0.36724187 0 0 1 -0.282141,0.19534 h -12.820393 a 0.30836696,0.36724187 0 0 1 -0.282135,-0.19534 0.23619596,0.28129164 0 0 1 0,-0.304733 l 0.859511,-1.429896 a 0.32148895,0.38286917 0 0 1 0.262441,-0.148459 h 11.153886 m 0,-0.523514 h -11.153886 a 0.76107589,0.90638417 0 0 0 -0.616742,0.375055 l -0.859506,1.429896 a 0.7085879,0.84387492 0 0 0 0.616748,1.328319 h 12.859763 a 0.7085879,0.84387492 0 0 0 0.616742,-1.328319 l -0.859504,-1.429896 a 0.76107589,0.90638417 0 0 0 -0.616742,-0.375055 z"
           id="path4359" />
      </g>
      <g
         id="g4361"
         transform="matrix(3.1472917,0,0,2.3790276,336.08264,-122.77245)"
         style="fill:#666666">
        <path
           id="path4363"
           d="m -78.865941,-25.605067 h -10.793025 a 0.78075895,0.92982521 0 0 1 0,-1.85965 h 10.793025 a 0.78075895,0.92982521 0 0 1 0,1.85965 z m -10.793025,-1.343949 a 0.34117196,0.40631015 0 1 0 0,0.781366 h 10.793025 a 0.34117196,0.40631015 0 0 0 0,-0.781366 z"
           inkscape:connector-curvature="0"
           style="fill:#666666;stroke-width:0.57944846" />
        <path
           id="path4365"
           d="m -80.34219,-23.268784 h -7.873336 a 0.78075895,0.92982521 0 1 1 0,-1.85965 h 7.873336 a 0.78075895,0.92982521 0 1 1 0,1.85965 z m -7.873336,-1.336136 a 0.34117196,0.40631015 0 1 0 0,0.781366 h 7.873336 a 0.34117196,0.40631015 0 1 0 0,-0.781366 z"
           inkscape:connector-curvature="0"
           style="fill:#666666;stroke-width:0.57944846" />
        <path
           id="path4367"
           d="m -80.34219,15.143162 h -7.873336 a 0.78075907,0.92982535 0 1 1 0,-1.859647 h 7.873336 a 0.78075907,0.92982535 0 0 1 0,1.859647 z m -7.873336,-1.336133 a 0.34117196,0.40631015 0 1 0 0,0.781364 h 7.873336 a 0.34117196,0.40631015 0 1 0 0,-0.781364 z"
           inkscape:connector-curvature="0"
           style="fill:#666666;stroke-width:0.57944846" />
        <path
           id="path4369"
           d="m -81.490388,12.767815 h -5.544132 a 1.2137848,1.4455265 0 0 1 -1.213803,-1.445524 v -32.653289 a 1.2137848,1.4455265 0 0 1 1.213803,-1.437712 h 5.544132 a 1.2137848,1.4455265 0 0 1 1.213808,1.445527 v 32.653288 a 1.2137848,1.4455265 0 0 1 -1.213808,1.43771 z m -5.544132,-35.020823 a 0.77419788,0.92201149 0 0 0 -0.77421,0.92201 v 32.661103 a 0.77419788,0.92201149 0 0 0 0.77421,0.92201 h 5.544132 a 0.77419788,0.92201149 0 0 0 0.774214,-0.92201 v -32.661103 a 0.77419788,0.92201149 0 0 0 -0.774214,-0.92201 z"
           inkscape:connector-curvature="0"
           style="fill:#666666;stroke-width:0.57944846" />
        <path
           id="path4371"
           d="m -86.122523,10.306518 a 0.22307396,0.26566433 0 0 1 -0.203405,-0.25785 v -30.098225 a 0.22307396,0.26566433 0 0 1 0.439594,0 v 30.098225 a 0.22307396,0.26566433 0 0 1 -0.236189,0.25785 z"
           inkscape:connector-curvature="0"
           style="fill:#666666;stroke-width:0.57944846" />
        <path
           id="path4373"
           d="m -84.259173,10.306518 a 0.22307396,0.26566433 0 0 1 -0.223076,-0.265664 v -30.090411 a 0.22307396,0.26566433 0 1 1 0.439594,0 v 30.098225 a 0.22307396,0.26566433 0 0 1 -0.216518,0.25785 z"
           inkscape:connector-curvature="0"
           style="fill:#666666;stroke-width:0.57944846" />
        <path
           id="path4375"
           d="m -82.389258,10.306518 a 0.22307396,0.26566433 0 0 1 -0.223075,-0.265664 v -30.090411 a 0.22307396,0.26566433 0 0 1 0.439593,0 v 30.098225 a 0.22307396,0.26566433 0 0 1 -0.216518,0.25785 z"
           inkscape:connector-curvature="0"
           style="fill:#666666;stroke-width:0.57944846" />
        <path
           id="path4377"
           d="m -78.701916,16.104239 a 0.32148895,0.38286917 0 0 1 0.262442,0.148459 l 0.859516,1.429896 a 0.23619596,0.28129164 0 0 1 0,0.304733 0.30836696,0.36724187 0 0 1 -0.282141,0.19534 h -12.820393 a 0.30836696,0.36724187 0 0 1 -0.282135,-0.19534 0.23619596,0.28129164 0 0 1 0,-0.304733 l 0.859511,-1.429896 a 0.32148895,0.38286917 0 0 1 0.262441,-0.148459 h 11.153886 m 0,-0.523514 h -11.153886 a 0.76107589,0.90638417 0 0 0 -0.616742,0.375055 l -0.859506,1.429896 a 0.7085879,0.84387492 0 0 0 0.616748,1.328319 h 12.859763 a 0.7085879,0.84387492 0 0 0 0.616742,-1.328319 l -0.859504,-1.429896 a 0.76107589,0.90638417 0 0 0 -0.616742,-0.375055 z"
           inkscape:connector-curvature="0"
           style="fill:#666666;stroke-width:0.57944846" />
      </g>
      <flowRoot
         xml:space="preserve"
         id="flowRoot4245"
         style="font-style:normal;font-weight:normal;line-height:0.01%;font-family:sans-serif;letter-spacing:0px;word-spacing:0px;fill:#000000;fill-opacity:1;stroke:none"
         transform="matrix(0.26456318,-0.00326599,0.00326598,0.26456316,24.79732,-426.17849)"><flowRegion
           id="flowRegion4247"><rect
             id="rect4249"
             width="1433.2173"
             height="56.873844"
             x="0"
             y="1387.0612" /></flowRegion><flowPara
           id="flowPara4251"
           style="font-style:normal;font-variant:normal;font-weight:bold;font-stretch:normal;font-size:37.33333206px;line-height:1.25;font-family:sans-serif;-inkscape-font-specification:'sans-serif Bold'">Collaboration </flowPara></flowRoot>      <text
         id="text4301"
         y="-67.154221"
         x="113.39184"
         style="font-style:normal;font-weight:normal;line-height:0%;font-family:sans-serif;letter-spacing:0px;word-spacing:0px;fill:#000000;fill-opacity:1;stroke:none;stroke-width:1px;stroke-linecap:butt;stroke-linejoin:miter;stroke-opacity:1"
         xml:space="preserve"><tspan
           style="font-style:normal;font-variant:normal;font-weight:bold;font-stretch:normal;font-size:9.8777771px;line-height:1.25;font-family:sans-serif;-inkscape-font-specification:'sans-serif Bold'"
           id="tspan4305"
           y="-67.154221"
           x="113.39184"
           sodipodi:role="line">Learning </tspan><tspan
           style="font-style:normal;font-variant:normal;font-weight:bold;font-stretch:normal;font-size:9.8777771px;line-height:1.25;font-family:sans-serif;-inkscape-font-specification:'sans-serif Bold'"
           id="tspan4311"
           y="-54.807007"
           x="113.39184"
           sodipodi:role="line">from  </tspan><tspan
           id="tspan4388"
           style="font-style:normal;font-variant:normal;font-weight:bold;font-stretch:normal;font-size:9.8777771px;line-height:1.25;font-family:sans-serif;-inkscape-font-specification:'sans-serif Bold'"
           y="-42.459778"
           x="113.39184"
           sodipodi:role="line">mistakes</tspan></text>
      <text
         xml:space="preserve"
         style="font-style:normal;font-weight:normal;line-height:0%;font-family:sans-serif;letter-spacing:0px;word-spacing:0px;fill:#000000;fill-opacity:1;stroke:none;stroke-width:1px;stroke-linecap:butt;stroke-linejoin:miter;stroke-opacity:1"
         x="178.99712"
         y="-56.188198"
         id="text4462"><tspan
           sodipodi:role="line"
           x="178.99712"
           y="-56.188198"
           style="font-style:normal;font-variant:normal;font-weight:bold;font-stretch:normal;font-size:9.8777771px;line-height:1.25;font-family:sans-serif;-inkscape-font-specification:'sans-serif Bold'"
           id="tspan4468">Authentic</tspan><tspan
           id="tspan4479"
           sodipodi:role="line"
           x="178.99712"
           y="-43.840969"
           style="font-style:normal;font-variant:normal;font-weight:bold;font-stretch:normal;font-size:9.8777771px;line-height:1.25;font-family:sans-serif;-inkscape-font-specification:'sans-serif Bold'">Learning</tspan></text>
    </g>
  </g>
</svg>
